<svg height="98.09770000000003" overflow="visible" viewBox="-5 -5 114 98.09770000000003" width="114" xmlns="http://www.w3.org/2000/svg"><g><defs><path id="path-17117263807658078" d="M7.36851,8.34166v-8.34166h22.67563v8.34166h12.11244l-36.06442,36.65834h-6.09216v-16.56557l19.76717,-20.09277zM73.95586,0h22.67563v8.34166h-15.40352l-36.06654,36.65834h-22.3873l36.06442,-36.65834h15.1173zM104,8.34166v16.56557l-19.76717,20.09277h-22.38941l36.06442,-36.65834z" vector-effect="non-scaling-stroke"/></defs><path d="M7.36851,8.34166v-8.34166h22.67563v8.34166h12.11244l-36.06442,36.65834h-6.09216v-16.56557l19.76717,-20.09277zM73.95586,0h22.67563v8.34166h-15.40352l-36.06654,36.65834h-22.3873l36.06442,-36.65834h15.1173zM104,8.34166v16.56557l-19.76717,20.09277h-22.38941l36.06442,-36.65834z" style="stroke-width: 0; stroke-linecap: butt; stroke-linejoin: miter; fill: rgb(255, 158, 27);" transform="translate(0, 11.000009999999975) rotate(0)" vector-effect="non-scaling-stroke"/></g><g><defs><path id="path-17117263807658076" d="M12.26041,10.053v-4.64685c0,-2.9857 2.87121,-5.40616 6.4132,-5.40616c3.54199,0 6.4132,2.42046 6.4132,5.40616v4.64685zM78.91531,10.053v-4.64685c0,-2.9857 2.87142,-5.40616 6.4132,-5.40616c3.54199,0 6.4132,2.42046 6.4132,5.40616v4.64685zM0,55.27725v-35.27725h104v35.27725zM7,63v-7h22.86286v7h-7.49481v24.09769c1.54439,0 3.25356,0 5.14507,0c0,0 0,0 1,1c0,0 0,0 -19.62073,0l-1,-1c0,0 0,0 6.14507,0v-24.09769zM74.13714,63v-7h22.86286v7h-7.03747v24.09769c1.54439,0 3.25356,0 5.14507,0c0,0 0,0 1,1c0,0 0,0 -19.62073,0l-1,-1c0,0 0,0 6.14507,0v-24.09769z" vector-effect="non-scaling-stroke"/></defs><path d="M12.26041,10.053v-4.64685c0,-2.9857 2.87121,-5.40616 6.4132,-5.40616c3.54199,0 6.4132,2.42046 6.4132,5.40616v4.64685zM78.91531,10.053v-4.64685c0,-2.9857 2.87142,-5.40616 6.4132,-5.40616c3.54199,0 6.4132,2.42046 6.4132,5.40616v4.64685zM0,55.27725v-35.27725h104v35.27725zM7,63v-7h22.86286v7h-7.49481v24.09769c1.54439,0 3.25356,0 5.14507,0c0,0 0,0 1,1c0,0 0,0 -19.62073,0l-1,-1c0,0 0,0 6.14507,0v-24.09769zM74.13714,63v-7h22.86286v7h-7.03747v24.09769c1.54439,0 3.25356,0 5.14507,0c0,0 0,0 1,1c0,0 0,0 -19.62073,0l-1,-1c0,0 0,0 6.14507,0v-24.09769z" style="stroke: rgb(2, 48, 71); stroke-width: 5; stroke-linecap: butt; stroke-linejoin: miter; fill: none;" transform="translate(0, 0.000009999999974752427) rotate(0)" vector-effect="non-scaling-stroke"/></g></svg>