<svg version="1.2" xmlns="http://www.w3.org/2000/svg" xmlns:xlink="http://www.w3.org/1999/xlink" overflow="visible" preserveAspectRatio="none" viewBox="0 0 84.00002070970771 83.99998907829226" width="84.00002070970771" height="83.99998907829226"><g transform="translate(0, 0)"><g transform="rotate(0)translate(-921,-182) translate(910.9999725110911, 211.9999912079445)"><g transform="translate(0.007970709707707385, 0.006299078292255289)&#10;        rotate(0)"><path d="M63.68635,32.98745l1.5891,-3.05925c1.30558,-2.52021 1.5436,-5.38695 0.66854,-8.08567c-0.87506,-2.69872 -2.75468,-4.87941 -5.15933,-6.07651l-21.55788,-11.9605c-13.81188,-7.1791 -24.19005,-2.62172 -29.14287,0.73156c-2.08963,1.41062 -3.24471,3.75231 -3.0907,6.26202c0.15051,2.47821 1.5611,4.63439 3.76624,5.77548l14.0849,7.58863l-23.76652,44.65322c-2.53066,5.09292 -0.48653,11.36545 4.56079,13.99066c1.5191,0.79107 3.1677,1.1866 4.82681,1.1866c1.09557,0 2.19814,-0.17151 3.27271,-0.52154c2.69867,-0.88207 4.88281,-2.76873 6.09739,-5.22243l23.476,-44.13517l6.2899,3.38828c1.5156,0.77356 3.1362,1.1411 4.7393,1.1411c3.80124,0 7.48348,-2.06867 9.3491,-5.65297zM13.61655,75.05325c-0.42003,0.84707 -1.14457,1.47362 -2.04413,1.76765c-0.90306,0.29402 -1.85862,0.21702 -2.69867,-0.22052c-1.68011,-0.87157 -2.36265,-2.96475 -1.5646,-4.57488l23.70702,-44.53421l6.13939,3.30778zM59.07046,26.70722l-1.5856,3.05925c-0.88556,1.69764 -2.99969,2.3732 -4.6238,1.53663l-38.80349,-20.90024c-0.021,-0.0105 -0.0175,-0.0525 -0.042,-0.06301c2.60417,-1.76415 6.2164,-3.35328 10.74219,-3.35328c3.25871,0 6.98995,0.82257 11.16572,2.98925l21.60688,11.985c0.84355,0.42354 1.47009,1.1481 1.76411,2.04767c0.29052,0.89957 0.21351,1.85515 -0.22401,2.69872zM83.99205,20.99125c0,1.93566 -1.5646,3.50029 -3.50022,3.50029h-3.50022c-1.93562,0 -3.50022,-1.56463 -3.50022,-3.50029c0,-1.93566 1.5646,-3.50029 3.50022,-3.50029h3.50022c1.93562,0 3.50022,1.56463 3.50022,3.50029zM70.17667,46.8374c1.19358,1.52263 0.92756,3.71731 -0.59854,4.91091c-0.64054,0.50404 -1.39659,0.74556 -2.15264,0.74556c-1.03957,0 -2.06863,-0.46204 -2.75818,-1.34411l-2.74068,-3.50029c-1.19358,-1.52263 -0.92756,-3.71731 0.59854,-4.91091c1.5191,-1.1971 3.71724,-0.92758 4.91081,0.59855zM80.46033,38.4612c-0.64404,1.13759 -1.82712,1.78165 -3.0522,1.78165c-0.58104,0 -1.17258,-0.14351 -1.71511,-0.45154l-3.1082,-1.75015c-1.68011,-0.94858 -2.27865,-3.08376 -1.33009,-4.7674c0.94856,-1.67664 3.0802,-2.28569 4.76731,-1.33011l3.1082,1.75015c1.68011,0.94858 2.27865,3.08376 1.33009,4.7674z" style="stroke-width: 0; stroke-linecap: butt; stroke-linejoin: miter; fill: rgb(255, 255, 255);" vector-effect="non-scaling-stroke"/></g></g><defs><path id="path-1711404866250105198" d="M63.68635,32.98745l1.5891,-3.05925c1.30558,-2.52021 1.5436,-5.38695 0.66854,-8.08567c-0.87506,-2.69872 -2.75468,-4.87941 -5.15933,-6.07651l-21.55788,-11.9605c-13.81188,-7.1791 -24.19005,-2.62172 -29.14287,0.73156c-2.08963,1.41062 -3.24471,3.75231 -3.0907,6.26202c0.15051,2.47821 1.5611,4.63439 3.76624,5.77548l14.0849,7.58863l-23.76652,44.65322c-2.53066,5.09292 -0.48653,11.36545 4.56079,13.99066c1.5191,0.79107 3.1677,1.1866 4.82681,1.1866c1.09557,0 2.19814,-0.17151 3.27271,-0.52154c2.69867,-0.88207 4.88281,-2.76873 6.09739,-5.22243l23.476,-44.13517l6.2899,3.38828c1.5156,0.77356 3.1362,1.1411 4.7393,1.1411c3.80124,0 7.48348,-2.06867 9.3491,-5.65297zM13.61655,75.05325c-0.42003,0.84707 -1.14457,1.47362 -2.04413,1.76765c-0.90306,0.29402 -1.85862,0.21702 -2.69867,-0.22052c-1.68011,-0.87157 -2.36265,-2.96475 -1.5646,-4.57488l23.70702,-44.53421l6.13939,3.30778zM59.07046,26.70722l-1.5856,3.05925c-0.88556,1.69764 -2.99969,2.3732 -4.6238,1.53663l-38.80349,-20.90024c-0.021,-0.0105 -0.0175,-0.0525 -0.042,-0.06301c2.60417,-1.76415 6.2164,-3.35328 10.74219,-3.35328c3.25871,0 6.98995,0.82257 11.16572,2.98925l21.60688,11.985c0.84355,0.42354 1.47009,1.1481 1.76411,2.04767c0.29052,0.89957 0.21351,1.85515 -0.22401,2.69872zM83.99205,20.99125c0,1.93566 -1.5646,3.50029 -3.50022,3.50029h-3.50022c-1.93562,0 -3.50022,-1.56463 -3.50022,-3.50029c0,-1.93566 1.5646,-3.50029 3.50022,-3.50029h3.50022c1.93562,0 3.50022,1.56463 3.50022,3.50029zM70.17667,46.8374c1.19358,1.52263 0.92756,3.71731 -0.59854,4.91091c-0.64054,0.50404 -1.39659,0.74556 -2.15264,0.74556c-1.03957,0 -2.06863,-0.46204 -2.75818,-1.34411l-2.74068,-3.50029c-1.19358,-1.52263 -0.92756,-3.71731 0.59854,-4.91091c1.5191,-1.1971 3.71724,-0.92758 4.91081,0.59855zM80.46033,38.4612c-0.64404,1.13759 -1.82712,1.78165 -3.0522,1.78165c-0.58104,0 -1.17258,-0.14351 -1.71511,-0.45154l-3.1082,-1.75015c-1.68011,-0.94858 -2.27865,-3.08376 -1.33009,-4.7674c0.94856,-1.67664 3.0802,-2.28569 4.76731,-1.33011l3.1082,1.75015c1.68011,0.94858 2.27865,3.08376 1.33009,4.7674z" vector-effect="non-scaling-stroke"/></defs></g></svg>