<svg version="1.2" xmlns="http://www.w3.org/2000/svg" xmlns:xlink="http://www.w3.org/1999/xlink" overflow="visible" preserveAspectRatio="none" viewBox="0 0 141.00000768070603 151" width="141.00000768070603" height="151"><g transform="translate(0, 0)"><g transform="translate(0.000010000000015164545, 0) rotate(0)"><path d="M138.78772,44.99454l-2.82346,-2.82181v-14.48939c0,-1.38992 -1.12728,-2.51667 -2.51786,-2.51667h-14.49625l-5.34132,-5.33879c-1.41343,-1.42047 -3.33666,-2.2167 -5.341,-2.21121h-15.10714v-2.51667c-0.00954,-8.33555 -6.76765,-15.09047 -15.10714,-15.1h-55.39285c-8.33949,0.00953 -15.0976,6.76445 -15.10714,15.1v110.73333h-5.03571c-1.39057,0 -2.51786,1.12675 -2.51786,2.51667v20.13333c0,1.38992 1.12728,2.51667 2.51786,2.51667h98.19641v-5.03333h-95.67856v-15.1h85.60713c1.39057,0 2.51786,-1.12675 2.51786,-2.51667v-40.26667h2.51786c1.38993,0.00156 2.5163,1.1274 2.51786,2.51667v39.00833c0,11.81429 9.5819,21.39167 21.40178,21.39167c11.81988,0 21.40178,-9.57738 21.40178,-21.39167v-79.275c0.00544,-2.00348 -0.79115,-3.92588 -2.21225,-5.33879zM110.04828,23.38707l6.07874,6.07586c0.47221,0.47196 1.11265,0.73709 1.78044,0.73707h13.0211v13.01494c-0.00002,0.66747 0.26523,1.30761 0.73742,1.7796l3.56088,3.55888c0.47368,0.47112 0.7392,1.112 0.73742,1.77991v30.2h-5.03571v-28.11526c-0.00006,-0.66736 -0.26531,-1.30738 -0.73742,-1.77928l-7.12176,-7.11839c-0.47213,-0.47188 -1.11245,-0.73701 -1.78012,-0.73707h-13.00284c-0.00567,-6.84785 -0.01857,-12.589 -0.01857,-12.589c-0.00312,-1.3877 -1.12949,-2.51101 -2.51786,-2.511h-2.51786v-5.03333h5.03571c0.66815,-0.00184 1.30926,0.26357 1.78044,0.73707zM95.67856,72.98333h-2.51786v-40.26667h10.07646c0.00504,2.78123 0.01637,26.46055 0.00661,30.17578c-0.00702,2.67422 1.05104,5.24128 2.94062,7.13452c1.88958,1.89324 4.45531,2.95696 7.13081,2.95637h12.57764v56.625c0,3.47479 -2.81821,6.29167 -6.29464,6.29167c-3.47643,0 -6.29464,-2.81688 -6.29464,-6.29167v-39.00833c-0.0111,-9.72482 -7.89558,-17.60557 -17.625,-17.61667zM120.24623,47.81667l5.64661,5.64394v4.42273h-7.55357v-10.06667zM115.82141,62.91667h10.07143v5.03333h-12.57764c-1.33762,0.00051 -2.62044,-0.53114 -3.56524,-1.47757c-0.94481,-0.94643 -1.4739,-2.2298 -1.47047,-3.56678c0.00787,-3.10588 0.01007,-10.29065 0.00944,-15.08899h5.01463v12.58333c0,1.38992 1.12728,2.51667 2.51786,2.51667zM98.19641,22.65v5.03333h-5.03571v-5.03333zM12.58928,125.83333v-110.73333c0.00624,-5.55708 4.51172,-10.06043 10.07143,-10.06667h55.39285c5.55971,0.00624 10.06518,4.50959 10.07143,10.06667v110.73333zM135.96426,129.60833c0,9.03446 -7.32734,16.35833 -16.36607,16.35833c-9.03873,0 -16.36607,-7.32388 -16.36607,-16.35833v-39.00833c-0.00468,-4.16781 -3.38379,-7.54532 -7.55357,-7.55h-2.51786v-5.03333h2.51786c6.94963,0.0078 12.58148,5.63698 12.58928,12.58333v39.00833c0,6.25462 5.07277,11.325 11.33036,11.325c6.25758,0 11.33036,-5.07038 11.33036,-11.325v-44.04167h5.03571zM77.50001,15.00001h-55.00001c-1.38071,0 -2.5,1.14416 -2.5,2.55556v40.88889c0,1.41139 1.11929,2.55556 2.5,2.55556h55.00001c1.38071,0 2.5,-1.14416 2.5,-2.55556v-40.88889c0,-1.41139 -1.11929,-2.55556 -2.5,-2.55556zM75.00001,55.8889h-50.00001v-35.77778h50.00001zM32.73215,35.23334h5.03571v5.03333h-5.03571zM42.80295,35.23334h5.03571v5.03333h-5.03571zM52.875,35.23334h5.03571v5.03333h-5.03571zM62.9458,35.23334h5.03571v5.03333h-5.03571zM39.12066,109.60411c3.8179,6.13939 11.63894,8.19244 17.87478,4.6922c6.23584,-3.50024 8.74463,-11.35153 5.73377,-17.94392l-9.98728,-21.89252c-0.40609,-0.89058 -1.27973,-1.45986 -2.24034,-1.45986c-0.96061,0 -1.83425,0.56928 -2.24034,1.45986l-9.98666,21.89252c-1.96208,4.27261 -1.6426,9.2765 0.84608,13.25172zM42.75496,98.49125l7.74663,-16.98193l7.74663,16.98193c1.67551,3.67324 0.66396,8.04289 -2.44394,10.55728c-3.10791,2.51439 -7.49747,2.51439 -10.60537,0c-3.10791,-2.51439 -4.11945,-6.88404 -2.44394,-10.55728z" style="stroke-width: 0; stroke-linecap: butt; stroke-linejoin: miter; fill: rgb(255, 158, 27);" vector-effect="non-scaling-stroke"/></g><defs><path id="path-1711564435100252242" d="M138.78772,44.99454l-2.82346,-2.82181v-14.48939c0,-1.38992 -1.12728,-2.51667 -2.51786,-2.51667h-14.49625l-5.34132,-5.33879c-1.41343,-1.42047 -3.33666,-2.2167 -5.341,-2.21121h-15.10714v-2.51667c-0.00954,-8.33555 -6.76765,-15.09047 -15.10714,-15.1h-55.39285c-8.33949,0.00953 -15.0976,6.76445 -15.10714,15.1v110.73333h-5.03571c-1.39057,0 -2.51786,1.12675 -2.51786,2.51667v20.13333c0,1.38992 1.12728,2.51667 2.51786,2.51667h98.19641v-5.03333h-95.67856v-15.1h85.60713c1.39057,0 2.51786,-1.12675 2.51786,-2.51667v-40.26667h2.51786c1.38993,0.00156 2.5163,1.1274 2.51786,2.51667v39.00833c0,11.81429 9.5819,21.39167 21.40178,21.39167c11.81988,0 21.40178,-9.57738 21.40178,-21.39167v-79.275c0.00544,-2.00348 -0.79115,-3.92588 -2.21225,-5.33879zM110.04828,23.38707l6.07874,6.07586c0.47221,0.47196 1.11265,0.73709 1.78044,0.73707h13.0211v13.01494c-0.00002,0.66747 0.26523,1.30761 0.73742,1.7796l3.56088,3.55888c0.47368,0.47112 0.7392,1.112 0.73742,1.77991v30.2h-5.03571v-28.11526c-0.00006,-0.66736 -0.26531,-1.30738 -0.73742,-1.77928l-7.12176,-7.11839c-0.47213,-0.47188 -1.11245,-0.73701 -1.78012,-0.73707h-13.00284c-0.00567,-6.84785 -0.01857,-12.589 -0.01857,-12.589c-0.00312,-1.3877 -1.12949,-2.51101 -2.51786,-2.511h-2.51786v-5.03333h5.03571c0.66815,-0.00184 1.30926,0.26357 1.78044,0.73707zM95.67856,72.98333h-2.51786v-40.26667h10.07646c0.00504,2.78123 0.01637,26.46055 0.00661,30.17578c-0.00702,2.67422 1.05104,5.24128 2.94062,7.13452c1.88958,1.89324 4.45531,2.95696 7.13081,2.95637h12.57764v56.625c0,3.47479 -2.81821,6.29167 -6.29464,6.29167c-3.47643,0 -6.29464,-2.81688 -6.29464,-6.29167v-39.00833c-0.0111,-9.72482 -7.89558,-17.60557 -17.625,-17.61667zM120.24623,47.81667l5.64661,5.64394v4.42273h-7.55357v-10.06667zM115.82141,62.91667h10.07143v5.03333h-12.57764c-1.33762,0.00051 -2.62044,-0.53114 -3.56524,-1.47757c-0.94481,-0.94643 -1.4739,-2.2298 -1.47047,-3.56678c0.00787,-3.10588 0.01007,-10.29065 0.00944,-15.08899h5.01463v12.58333c0,1.38992 1.12728,2.51667 2.51786,2.51667zM98.19641,22.65v5.03333h-5.03571v-5.03333zM12.58928,125.83333v-110.73333c0.00624,-5.55708 4.51172,-10.06043 10.07143,-10.06667h55.39285c5.55971,0.00624 10.06518,4.50959 10.07143,10.06667v110.73333zM135.96426,129.60833c0,9.03446 -7.32734,16.35833 -16.36607,16.35833c-9.03873,0 -16.36607,-7.32388 -16.36607,-16.35833v-39.00833c-0.00468,-4.16781 -3.38379,-7.54532 -7.55357,-7.55h-2.51786v-5.03333h2.51786c6.94963,0.0078 12.58148,5.63698 12.58928,12.58333v39.00833c0,6.25462 5.07277,11.325 11.33036,11.325c6.25758,0 11.33036,-5.07038 11.33036,-11.325v-44.04167h5.03571zM77.50001,15.00001h-55.00001c-1.38071,0 -2.5,1.14416 -2.5,2.55556v40.88889c0,1.41139 1.11929,2.55556 2.5,2.55556h55.00001c1.38071,0 2.5,-1.14416 2.5,-2.55556v-40.88889c0,-1.41139 -1.11929,-2.55556 -2.5,-2.55556zM75.00001,55.8889h-50.00001v-35.77778h50.00001zM32.73215,35.23334h5.03571v5.03333h-5.03571zM42.80295,35.23334h5.03571v5.03333h-5.03571zM52.875,35.23334h5.03571v5.03333h-5.03571zM62.9458,35.23334h5.03571v5.03333h-5.03571zM39.12066,109.60411c3.8179,6.13939 11.63894,8.19244 17.87478,4.6922c6.23584,-3.50024 8.74463,-11.35153 5.73377,-17.94392l-9.98728,-21.89252c-0.40609,-0.89058 -1.27973,-1.45986 -2.24034,-1.45986c-0.96061,0 -1.83425,0.56928 -2.24034,1.45986l-9.98666,21.89252c-1.96208,4.27261 -1.6426,9.2765 0.84608,13.25172zM42.75496,98.49125l7.74663,-16.98193l7.74663,16.98193c1.67551,3.67324 0.66396,8.04289 -2.44394,10.55728c-3.10791,2.51439 -7.49747,2.51439 -10.60537,0c-3.10791,-2.51439 -4.11945,-6.88404 -2.44394,-10.55728z" vector-effect="non-scaling-stroke"/></defs></g></svg>