<svg version="1.2" xmlns="http://www.w3.org/2000/svg" xmlns:xlink="http://www.w3.org/1999/xlink" overflow="visible" preserveAspectRatio="none" viewBox="0 0 162.99997150200326 156.9999758659432" width="162.99997150200326" height="156.9999758659432"><g transform="translate(0, 0)"><g transform="translate(4.916168006158239e-7, -0.000004134056796410712) rotate(0)"><path style="stroke-width: 0; stroke-linecap: butt; stroke-linejoin: miter; fill: rgb(255, 158, 27);" d="M82.26329,119.53152c-0.03733,0.68953 -0.14861,1.38229 -0.32989,2.05891c-0.51296,1.91297 0.62352,3.87902 2.53859,4.39141c0.31122,0.08319 0.62352,0.12299 0.93115,0.12299c1.58518,0 3.03575,-1.05671 3.46507,-2.6588c0.30979,-1.15496 0.49932,-2.34111 0.56357,-3.52583c0.10733,-1.97752 -1.41037,-3.66746 -3.38969,-3.77467c-1.97897,-0.10219 -3.67112,1.40882 -3.77881,3.38598zM103.23465,119.0141c-1.91543,-0.51311 -3.88327,0.62248 -4.39658,2.53545c-0.51332,1.91297 0.62316,3.87902 2.53823,4.39177l29.42279,7.87493c0.31122,0.08319 0.62388,0.12299 0.93151,0.12299c1.58482,0 3.03539,-1.05671 3.46507,-2.65844c0.51332,-1.91297 -0.62316,-3.87902 -2.53823,-4.39177zM74.76096,87.35267c-1.93984,0.40805 -3.18149,2.30991 -2.77263,4.24763c0.14251,0.67591 0.21466,1.37368 0.21466,2.07361c0,1.98039 1.60708,3.58571 3.58963,3.58571c1.98255,0 3.58963,-1.60532 3.58963,-3.58571c0,-1.19583 -0.1242,-2.39095 -0.36901,-3.55164c-0.4085,-1.93807 -2.31388,-3.17801 -4.25228,-2.7696zM122.57164,85.6785h-30.46055c-1.98255,0 -3.58963,1.60532 -3.58963,3.58571c0,1.98039 1.60708,3.58571 3.58963,3.58571h30.46055c1.98255,0 3.58963,-1.60532 3.58963,-3.58571c0,-1.98039 -1.60744,-3.58571 -3.58963,-3.58571zM162.51924,88.34161c-0.47599,-0.82364 -1.25996,-1.4246 -2.17963,-1.67058l-9.75196,-2.61004c-1.91507,-0.51276 -3.88362,0.62248 -4.39658,2.53545c-0.51332,1.91297 0.62316,3.87902 2.53823,4.39177l6.28473,1.68205l-15.11595,56.35225l-96.04496,-25.70701l0.29794,-1.11049c1.00653,-0.89786 1.46134,-2.32748 1.04925,-3.70439c-0.56824,-1.8972 -2.56802,-2.97398 -4.46802,-2.40744l-0.66157,0.19757c-1.19319,0.35678 -2.11609,1.30556 -2.43844,2.50748l-1.64298,6.1251c-0.51296,1.91262 0.62316,3.87902 2.53823,4.39141l102.97941,27.56297c0.30584,0.08175 0.61813,0.12227 0.929,0.12227c0.62496,0 1.24453,-0.16315 1.79482,-0.48048c0.82454,-0.47546 1.42616,-1.25858 1.67241,-2.17724l16.9743,-63.27947c0.24661,-0.91902 0.11774,-1.89756 -0.35825,-2.72119zM142.47939,108.77117v-65.51193c0,-1.98039 -1.60708,-3.58571 -3.58963,-3.58571h-10.52911c-1.98255,0 -3.58963,1.60532 -3.58963,3.58571c0,1.98039 1.60708,3.58571 3.58963,3.58571h6.93948v58.34052h-99.43285v-2.75562c0,-1.98039 -1.60708,-3.58571 -3.58963,-3.58571c-1.98255,0 -3.58963,1.60532 -3.58963,3.58571v6.34132c0,1.98039 1.60708,3.58571 3.58963,3.58571h106.61212c1.98255,0 3.58963,-1.60532 3.58963,-3.58571zM38.49582,55.00001c0.91562,0 1.83124,-0.11504 2.72147,-0.34236c5.59204,-1.42679 8.92224,-6.92013 7.42365,-12.24556c-1.22796,-4.36399 -5.39615,-7.41208 -10.13678,-7.41208c-0.91562,0 -1.83124,0.11504 -2.72147,0.34236c-5.59204,1.42679 -8.92224,6.92013 -7.42365,12.24556c1.2276,4.36399 5.39615,7.41208 10.13678,7.41208zM37.66036,42.01617c0.27788,-0.07082 0.56156,-0.10675 0.84379,-0.10675c1.46267,0 2.74941,0.9421 3.12886,2.29116c0.46289,1.64513 -0.56628,3.34209 -2.29377,3.78325c-0.27788,0.07082 -0.56156,0.10675 -0.84379,0.10675c-1.46267,0 -2.74941,-0.9421 -3.12886,-2.29116c-0.46253,-1.64513 0.56628,-3.34243 2.29377,-3.78325zM41.90396,58.5175c-7.46357,1.99796 -12.70228,8.78068 -12.73925,16.49461c-0.00933,1.98039 1.59021,3.59324 3.5724,3.60292c0.0061,0 0.01149,0 0.01759,0c1.9743,0 3.57994,-1.59421 3.58927,-3.5685c0.01544,-3.23753 1.61067,-6.18714 4.12592,-8.02051l0.61131,2.27979c0.42968,1.60209 1.87989,2.6588 3.46507,2.6588c0.30727,0 0.62029,-0.0398 0.93115,-0.12299c1.91507,-0.5124 3.05155,-2.4788 2.53823,-4.39141l-0.61131,-2.27979c3.09606,0.33168 5.95413,2.08903 7.58777,4.88481c0.99935,1.71038 3.19729,2.28696 4.9099,1.28906c1.71226,-0.99826 2.28983,-3.19415 1.29047,-4.90453c-3.89296,-6.66224 -11.82497,-9.9195 -19.28854,-7.92226zM67.36846,37.98538l14.7114,-3.93746c1.91471,-0.5124 3.05119,-2.4788 2.53823,-4.39177c-0.51332,-1.91262 -2.48151,-3.04893 -4.39658,-2.53545l-14.7114,3.93746c-1.91471,0.5124 -3.05119,2.4788 -2.53823,4.39177c0.42968,1.60209 1.87989,2.65844 3.46507,2.65844c0.30763,0.00036 0.62029,-0.03944 0.93151,-0.12299zM70.71472,50.4597l29.42279,-7.87529c1.91471,-0.5124 3.05119,-2.4788 2.53823,-4.39177c-0.51296,-1.91262 -2.48115,-3.04857 -4.39658,-2.53545l-29.42279,7.87529c-1.91471,0.5124 -3.05119,2.4788 -2.53823,4.39177c0.42968,1.60209 1.87989,2.65844 3.46507,2.65844c0.30727,0.00036 0.62029,-0.03944 0.93151,-0.12299zM101.79843,48.77836l-29.42279,7.87529c-1.91471,0.5124 -3.05119,2.4788 -2.53823,4.39177c0.42968,1.60209 1.87989,2.65844 3.46507,2.65844c0.30727,0 0.62029,-0.0398 0.93151,-0.12299l29.42279,-7.87529c1.91471,-0.5124 3.05119,-2.4788 2.53823,-4.39177c-0.51296,-1.91297 -2.48115,-3.04893 -4.39658,-2.53545zM126.87684,65.92759l-16.95597,-63.2704c-0.24635,-0.91853 -0.84697,-1.70153 -1.67064,-2.17693c-0.82331,-0.4754 -1.80188,-0.6041 -2.72093,-0.35816l-102.87075,27.55938c-1.91268,0.51232 -3.04796,2.47844 -2.53554,4.39114l16.95633,63.27004c0.24635,0.91853 0.84697,1.70153 1.67064,2.17693c0.55007,0.31729 1.16898,0.48042 1.79292,0.48042c0.31053,0 0.6225,-0.04051 0.92801,-0.12226l102.87039,-27.55902c1.91304,-0.51232 3.04832,-2.47844 2.53554,-4.39114zM23.07844,90.02367l-15.09994,-56.34417l95.94292,-25.70332l15.09994,56.34453z" vector-effect="non-scaling-stroke"/></g><defs><path id="path-17117489016361317" d="M82.26329,119.53152c-0.03733,0.68953 -0.14861,1.38229 -0.32989,2.05891c-0.51296,1.91297 0.62352,3.87902 2.53859,4.39141c0.31122,0.08319 0.62352,0.12299 0.93115,0.12299c1.58518,0 3.03575,-1.05671 3.46507,-2.6588c0.30979,-1.15496 0.49932,-2.34111 0.56357,-3.52583c0.10733,-1.97752 -1.41037,-3.66746 -3.38969,-3.77467c-1.97897,-0.10219 -3.67112,1.40882 -3.77881,3.38598zM103.23465,119.0141c-1.91543,-0.51311 -3.88327,0.62248 -4.39658,2.53545c-0.51332,1.91297 0.62316,3.87902 2.53823,4.39177l29.42279,7.87493c0.31122,0.08319 0.62388,0.12299 0.93151,0.12299c1.58482,0 3.03539,-1.05671 3.46507,-2.65844c0.51332,-1.91297 -0.62316,-3.87902 -2.53823,-4.39177zM74.76096,87.35267c-1.93984,0.40805 -3.18149,2.30991 -2.77263,4.24763c0.14251,0.67591 0.21466,1.37368 0.21466,2.07361c0,1.98039 1.60708,3.58571 3.58963,3.58571c1.98255,0 3.58963,-1.60532 3.58963,-3.58571c0,-1.19583 -0.1242,-2.39095 -0.36901,-3.55164c-0.4085,-1.93807 -2.31388,-3.17801 -4.25228,-2.7696zM122.57164,85.6785h-30.46055c-1.98255,0 -3.58963,1.60532 -3.58963,3.58571c0,1.98039 1.60708,3.58571 3.58963,3.58571h30.46055c1.98255,0 3.58963,-1.60532 3.58963,-3.58571c0,-1.98039 -1.60744,-3.58571 -3.58963,-3.58571zM162.51924,88.34161c-0.47599,-0.82364 -1.25996,-1.4246 -2.17963,-1.67058l-9.75196,-2.61004c-1.91507,-0.51276 -3.88362,0.62248 -4.39658,2.53545c-0.51332,1.91297 0.62316,3.87902 2.53823,4.39177l6.28473,1.68205l-15.11595,56.35225l-96.04496,-25.70701l0.29794,-1.11049c1.00653,-0.89786 1.46134,-2.32748 1.04925,-3.70439c-0.56824,-1.8972 -2.56802,-2.97398 -4.46802,-2.40744l-0.66157,0.19757c-1.19319,0.35678 -2.11609,1.30556 -2.43844,2.50748l-1.64298,6.1251c-0.51296,1.91262 0.62316,3.87902 2.53823,4.39141l102.97941,27.56297c0.30584,0.08175 0.61813,0.12227 0.929,0.12227c0.62496,0 1.24453,-0.16315 1.79482,-0.48048c0.82454,-0.47546 1.42616,-1.25858 1.67241,-2.17724l16.9743,-63.27947c0.24661,-0.91902 0.11774,-1.89756 -0.35825,-2.72119zM142.47939,108.77117v-65.51193c0,-1.98039 -1.60708,-3.58571 -3.58963,-3.58571h-10.52911c-1.98255,0 -3.58963,1.60532 -3.58963,3.58571c0,1.98039 1.60708,3.58571 3.58963,3.58571h6.93948v58.34052h-99.43285v-2.75562c0,-1.98039 -1.60708,-3.58571 -3.58963,-3.58571c-1.98255,0 -3.58963,1.60532 -3.58963,3.58571v6.34132c0,1.98039 1.60708,3.58571 3.58963,3.58571h106.61212c1.98255,0 3.58963,-1.60532 3.58963,-3.58571zM38.49582,55.00001c0.91562,0 1.83124,-0.11504 2.72147,-0.34236c5.59204,-1.42679 8.92224,-6.92013 7.42365,-12.24556c-1.22796,-4.36399 -5.39615,-7.41208 -10.13678,-7.41208c-0.91562,0 -1.83124,0.11504 -2.72147,0.34236c-5.59204,1.42679 -8.92224,6.92013 -7.42365,12.24556c1.2276,4.36399 5.39615,7.41208 10.13678,7.41208zM37.66036,42.01617c0.27788,-0.07082 0.56156,-0.10675 0.84379,-0.10675c1.46267,0 2.74941,0.9421 3.12886,2.29116c0.46289,1.64513 -0.56628,3.34209 -2.29377,3.78325c-0.27788,0.07082 -0.56156,0.10675 -0.84379,0.10675c-1.46267,0 -2.74941,-0.9421 -3.12886,-2.29116c-0.46253,-1.64513 0.56628,-3.34243 2.29377,-3.78325zM41.90396,58.5175c-7.46357,1.99796 -12.70228,8.78068 -12.73925,16.49461c-0.00933,1.98039 1.59021,3.59324 3.5724,3.60292c0.0061,0 0.01149,0 0.01759,0c1.9743,0 3.57994,-1.59421 3.58927,-3.5685c0.01544,-3.23753 1.61067,-6.18714 4.12592,-8.02051l0.61131,2.27979c0.42968,1.60209 1.87989,2.6588 3.46507,2.6588c0.30727,0 0.62029,-0.0398 0.93115,-0.12299c1.91507,-0.5124 3.05155,-2.4788 2.53823,-4.39141l-0.61131,-2.27979c3.09606,0.33168 5.95413,2.08903 7.58777,4.88481c0.99935,1.71038 3.19729,2.28696 4.9099,1.28906c1.71226,-0.99826 2.28983,-3.19415 1.29047,-4.90453c-3.89296,-6.66224 -11.82497,-9.9195 -19.28854,-7.92226zM67.36846,37.98538l14.7114,-3.93746c1.91471,-0.5124 3.05119,-2.4788 2.53823,-4.39177c-0.51332,-1.91262 -2.48151,-3.04893 -4.39658,-2.53545l-14.7114,3.93746c-1.91471,0.5124 -3.05119,2.4788 -2.53823,4.39177c0.42968,1.60209 1.87989,2.65844 3.46507,2.65844c0.30763,0.00036 0.62029,-0.03944 0.93151,-0.12299zM70.71472,50.4597l29.42279,-7.87529c1.91471,-0.5124 3.05119,-2.4788 2.53823,-4.39177c-0.51296,-1.91262 -2.48115,-3.04857 -4.39658,-2.53545l-29.42279,7.87529c-1.91471,0.5124 -3.05119,2.4788 -2.53823,4.39177c0.42968,1.60209 1.87989,2.65844 3.46507,2.65844c0.30727,0.00036 0.62029,-0.03944 0.93151,-0.12299zM101.79843,48.77836l-29.42279,7.87529c-1.91471,0.5124 -3.05119,2.4788 -2.53823,4.39177c0.42968,1.60209 1.87989,2.65844 3.46507,2.65844c0.30727,0 0.62029,-0.0398 0.93151,-0.12299l29.42279,-7.87529c1.91471,-0.5124 3.05119,-2.4788 2.53823,-4.39177c-0.51296,-1.91297 -2.48115,-3.04893 -4.39658,-2.53545zM126.87684,65.92759l-16.95597,-63.2704c-0.24635,-0.91853 -0.84697,-1.70153 -1.67064,-2.17693c-0.82331,-0.4754 -1.80188,-0.6041 -2.72093,-0.35816l-102.87075,27.55938c-1.91268,0.51232 -3.04796,2.47844 -2.53554,4.39114l16.95633,63.27004c0.24635,0.91853 0.84697,1.70153 1.67064,2.17693c0.55007,0.31729 1.16898,0.48042 1.79292,0.48042c0.31053,0 0.6225,-0.04051 0.92801,-0.12226l102.87039,-27.55902c1.91304,-0.51232 3.04832,-2.47844 2.53554,-4.39114zM23.07844,90.02367l-15.09994,-56.34417l95.94292,-25.70332l15.09994,56.34453z" vector-effect="non-scaling-stroke"/></defs></g></svg>