<svg version="1.2" xmlns="http://www.w3.org/2000/svg" xmlns:xlink="http://www.w3.org/1999/xlink" overflow="visible" preserveAspectRatio="none" viewBox="0 0 96.00000957704825 95.99999302498577" width="96.00000957704825" height="95.99999302498577"><g transform="translate(0, 0)"><g transform="rotate(0)translate(-498,-182) translate(485.999990135056, 200.99999999565716)"><g transform="translate(-0.00022956143090480108, 0.0000030249857750751755)&#10;        rotate(0)"><path d="M48.00023,0c-20.94022,-0.00772 -39.46637,14.80006 -45.77055,36.58399c-6.30418,21.78393 1.06991,45.51178 18.21838,58.62182l1.03601,0.79418h53.03233l1.03601,-0.79418c17.14846,-13.11005 24.52256,-36.83789 18.21838,-58.62182c-6.30418,-21.78393 -24.83033,-36.59172 -45.77055,-36.58399zM71.95208,87.27273h-47.9043c-13.79817,-11.25412 -19.44072,-30.88186 -14.00489,-48.7163c5.43583,-17.83444 20.72868,-29.86837 37.95704,-29.86837c17.22836,0 32.52121,12.03393 37.95704,29.86837c5.43583,17.83444 -0.20672,37.46218 -14.00489,48.7163zM80.00013,52.36364c0.02351,9.39224 -3.44979,18.39237 -9.62406,24.93818l-5.60003,-6.24c6.21877,-6.58265 8.66312,-16.33434 6.38004,-25.45309l6.30004,-6.87273c1.68063,4.30929 2.54594,8.94454 2.54402,13.62764zM23.99978,52.36364c-0.02249,7.03973 2.57595,13.78777 7.20004,18.69818l-5.60003,6.24c-10.97242,-11.73965 -12.74485,-30.33082 -4.22177,-44.2824c8.52308,-13.95157 24.93431,-19.32289 39.08999,-12.79397l-6.27604,6.87273c-7.20408,-2.14099 -14.91141,-0.48743 -20.83576,4.47018c-5.92435,4.95762 -9.38538,12.64997 -9.35643,20.79527zM55.70398,50.12946c0.98992,3.88339 -0.54446,8.0067 -3.73556,10.03852c-3.19111,2.03181 -7.23675,1.46136 -9.84942,-1.38881c-2.61267,-2.85017 -3.13559,-7.26357 -1.27308,-10.74476c1.86251,-3.48119 5.64223,-5.15505 9.20203,-4.07514l17.12411,-18.68073l5.65604,6.17018z" style="stroke-width: 0; stroke-linecap: butt; stroke-linejoin: miter; fill: rgb(255, 255, 255);" vector-effect="non-scaling-stroke"/></g></g><defs><path id="path-1711404866256105208" d="M48.00023,0c-20.94022,-0.00772 -39.46637,14.80006 -45.77055,36.58399c-6.30418,21.78393 1.06991,45.51178 18.21838,58.62182l1.03601,0.79418h53.03233l1.03601,-0.79418c17.14846,-13.11005 24.52256,-36.83789 18.21838,-58.62182c-6.30418,-21.78393 -24.83033,-36.59172 -45.77055,-36.58399zM71.95208,87.27273h-47.9043c-13.79817,-11.25412 -19.44072,-30.88186 -14.00489,-48.7163c5.43583,-17.83444 20.72868,-29.86837 37.95704,-29.86837c17.22836,0 32.52121,12.03393 37.95704,29.86837c5.43583,17.83444 -0.20672,37.46218 -14.00489,48.7163zM80.00013,52.36364c0.02351,9.39224 -3.44979,18.39237 -9.62406,24.93818l-5.60003,-6.24c6.21877,-6.58265 8.66312,-16.33434 6.38004,-25.45309l6.30004,-6.87273c1.68063,4.30929 2.54594,8.94454 2.54402,13.62764zM23.99978,52.36364c-0.02249,7.03973 2.57595,13.78777 7.20004,18.69818l-5.60003,6.24c-10.97242,-11.73965 -12.74485,-30.33082 -4.22177,-44.2824c8.52308,-13.95157 24.93431,-19.32289 39.08999,-12.79397l-6.27604,6.87273c-7.20408,-2.14099 -14.91141,-0.48743 -20.83576,4.47018c-5.92435,4.95762 -9.38538,12.64997 -9.35643,20.79527zM55.70398,50.12946c0.98992,3.88339 -0.54446,8.0067 -3.73556,10.03852c-3.19111,2.03181 -7.23675,1.46136 -9.84942,-1.38881c-2.61267,-2.85017 -3.13559,-7.26357 -1.27308,-10.74476c1.86251,-3.48119 5.64223,-5.15505 9.20203,-4.07514l17.12411,-18.68073l5.65604,6.17018z" vector-effect="non-scaling-stroke"/></defs></g></svg>