<svg version="1.2" xmlns="http://www.w3.org/2000/svg" xmlns:xlink="http://www.w3.org/1999/xlink" overflow="visible" preserveAspectRatio="none" viewBox="0 0 7 12" width="7" height="12"><g transform="translate(0, 0)"><defs><path id="path-1710949687090163692" d="M7.190555555555555 5.4760851039984635 C7.190555555555555 5.4760851039984635 0.9683333333333325 0.07609545842375276 0.9683333333333325 0.07609545842375276 C0.847777777777777 -0.028304341390692045 0.7007777777777771 -0.025904345992659117 0.5817777777777771 0.08089544921981862 C0.46199999999999986 0.18889524213131104 0.38888888888888884 0.385694864770036 0.38888888888888884 0.5992944551949897 C0.38888888888888884 0.5992944551949897 0.38888888888888884 11.399273746344411 0.38888888888888884 11.399273746344411 C0.38888888888888884 11.612873336769368 0.46199999999999986 11.809672959408092 0.5817777777777777 11.917672752319584 C0.6424444444444444 11.971672648775332 0.7101111111111109 11.999272595852714 0.7777777777777777 11.999272595852714 C0.843111111111111 11.999272595852714 0.9092222222222222 11.974072644173363 0.9683333333333333 11.92247274311565 C0.9683333333333333 11.92247274311565 7.190555555555555 6.52248309754094 7.190555555555555 6.52248309754094 C7.312666666666666 6.4156833023284605 7.388888888888888 6.216483684291705 7.388888888888888 5.9992841007697 C7.388888888888888 5.782084517247694 7.312666666666664 5.5828848992109394 7.190555555555555 5.4760851039984635 Z" vector-effect="non-scaling-stroke"/></defs><g transform="translate(-0.38888888888888884, -0.000463683900878431)"><path d="M7.190555555555555 5.4760851039984635 C7.190555555555555 5.4760851039984635 0.9683333333333325 0.07609545842375276 0.9683333333333325 0.07609545842375276 C0.847777777777777 -0.028304341390692045 0.7007777777777771 -0.025904345992659117 0.5817777777777771 0.08089544921981862 C0.46199999999999986 0.18889524213131104 0.38888888888888884 0.385694864770036 0.38888888888888884 0.5992944551949897 C0.38888888888888884 0.5992944551949897 0.38888888888888884 11.399273746344411 0.38888888888888884 11.399273746344411 C0.38888888888888884 11.612873336769368 0.46199999999999986 11.809672959408092 0.5817777777777777 11.917672752319584 C0.6424444444444444 11.971672648775332 0.7101111111111109 11.999272595852714 0.7777777777777777 11.999272595852714 C0.843111111111111 11.999272595852714 0.9092222222222222 11.974072644173363 0.9683333333333333 11.92247274311565 C0.9683333333333333 11.92247274311565 7.190555555555555 6.52248309754094 7.190555555555555 6.52248309754094 C7.312666666666666 6.4156833023284605 7.388888888888888 6.216483684291705 7.388888888888888 5.9992841007697 C7.388888888888888 5.782084517247694 7.312666666666664 5.5828848992109394 7.190555555555555 5.4760851039984635 Z" style="stroke-width: 0; stroke-linecap: butt; stroke-linejoin: miter; fill: rgb(38, 45, 63);" vector-effect="non-scaling-stroke"/></g></g></svg>