<svg version="1.2" xmlns="http://www.w3.org/2000/svg" xmlns:xlink="http://www.w3.org/1999/xlink" overflow="visible" preserveAspectRatio="none" viewBox="0 0 17.000009999999996 17.000009999999996" width="17.000009999999996" height="17.000009999999996"><g transform="translate(0, 0)"><g transform="translate(0.000009999999997845066, 0.00047999999999959186) rotate(0)"><path d="M16.74864,15.54151l-4.58867,-4.58017c0.93217,-1.18757 1.43796,-2.65408 1.43608,-4.16379c0,-3.75445 -3.04358,-6.79803 -6.79803,-6.79803c-3.75445,0 -6.79803,3.04358 -6.79803,6.79803c0,3.75445 3.04358,6.79803 6.79803,6.79803c1.50972,0.00188 2.97622,-0.50392 4.16379,-1.43608l4.58017,4.58867c0.15956,0.16087 0.37675,0.25136 0.60333,0.25136c0.22658,0 0.44377,-0.09049 0.60333,-0.25136c0.16087,-0.15956 0.25136,-0.37675 0.25136,-0.60333c0,-0.22658 -0.09049,-0.44377 -0.25136,-0.60333zM1.69951,6.79853c0,-2.81665 2.28269,-5.1 5.09852,-5.1c2.81584,0 5.09852,2.28335 5.09852,5.1c0,2.81665 -2.28269,5.1 -5.09852,5.1c-2.81584,0 -5.09852,-2.28335 -5.09852,-5.1z" style="stroke-width: 0; stroke-linecap: butt; stroke-linejoin: miter; fill: rgb(90, 103, 117);" vector-effect="non-scaling-stroke"/></g><defs><path id="path-171155531107444279" d="M16.74864,15.54151l-4.58867,-4.58017c0.93217,-1.18757 1.43796,-2.65408 1.43608,-4.16379c0,-3.75445 -3.04358,-6.79803 -6.79803,-6.79803c-3.75445,0 -6.79803,3.04358 -6.79803,6.79803c0,3.75445 3.04358,6.79803 6.79803,6.79803c1.50972,0.00188 2.97622,-0.50392 4.16379,-1.43608l4.58017,4.58867c0.15956,0.16087 0.37675,0.25136 0.60333,0.25136c0.22658,0 0.44377,-0.09049 0.60333,-0.25136c0.16087,-0.15956 0.25136,-0.37675 0.25136,-0.60333c0,-0.22658 -0.09049,-0.44377 -0.25136,-0.60333zM1.69951,6.79853c0,-2.81665 2.28269,-5.1 5.09852,-5.1c2.81584,0 5.09852,2.28335 5.09852,5.1c0,2.81665 -2.28269,5.1 -5.09852,5.1c-2.81584,0 -5.09852,-2.28335 -5.09852,-5.1z" vector-effect="non-scaling-stroke"/></defs></g></svg>