<svg version="1.2" xmlns="http://www.w3.org/2000/svg" xmlns:xlink="http://www.w3.org/1999/xlink" overflow="visible" preserveAspectRatio="none" viewBox="0 0 16 16" width="16" height="16"><g transform="translate(0, 0)"><g transform="translate(0, 0) rotate(0)"><path style="stroke-width: 0; stroke-linecap: butt; stroke-linejoin: miter; fill: rgb(255, 255, 255);" d="M6.464,7.088c0.04,-0.264 0.128,-0.496 0.24,-0.696c0.112,-0.2 0.272,-0.368 0.472,-0.496c0.192,-0.12 0.432,-0.176 0.728,-0.184c0.184,0.008 0.352,0.04 0.504,0.104c0.16,0.072 0.304,0.168 0.416,0.288c0.112,0.12 0.2,0.264 0.272,0.424c0.072,0.16 0.104,0.336 0.112,0.512h1.432c-0.016,-0.376 -0.088,-0.72 -0.224,-1.032c-0.136,-0.312 -0.32,-0.584 -0.56,-0.808c-0.24,-0.224 -0.528,-0.4 -0.864,-0.528c-0.336,-0.128 -0.704,-0.184 -1.112,-0.184c-0.52,0 -0.976,0.088 -1.36,0.272c-0.384,0.184 -0.704,0.424 -0.96,0.736c-0.256,0.312 -0.448,0.672 -0.568,1.088c-0.12,0.416 -0.192,0.848 -0.192,1.312v0.216c0,0.464 0.064,0.896 0.184,1.312c0.12,0.416 0.312,0.776 0.568,1.08c0.256,0.304 0.576,0.552 0.96,0.728c0.384,0.176 0.84,0.272 1.36,0.272c0.376,0 0.728,-0.064 1.056,-0.184c0.328,-0.12 0.616,-0.288 0.864,-0.504c0.248,-0.216 0.448,-0.464 0.592,-0.752c0.144,-0.288 0.232,-0.592 0.24,-0.92h-1.432c-0.008,0.168 -0.048,0.32 -0.12,0.464c-0.072,0.144 -0.168,0.264 -0.288,0.368c-0.12,0.104 -0.256,0.184 -0.416,0.24c-0.152,0.056 -0.312,0.072 -0.48,0.08c-0.288,-0.008 -0.528,-0.064 -0.712,-0.184c-0.2,-0.128 -0.36,-0.296 -0.472,-0.496c-0.112,-0.2 -0.2,-0.44 -0.24,-0.704c-0.04,-0.264 -0.064,-0.536 -0.064,-0.8v-0.216c0,-0.28 0.024,-0.544 0.064,-0.808zM8,0c-4.416,0 -8,3.584 -8,8c0,4.416 3.584,8 8,8c4.416,0 8,-3.584 8,-8c0,-4.416 -3.584,-8 -8,-8zM8,14.4c-3.528,0 -6.4,-2.872 -6.4,-6.4c0,-3.528 2.872,-6.4 6.4,-6.4c3.528,0 6.4,2.872 6.4,6.4c0,3.528 -2.872,6.4 -6.4,6.4z" vector-effect="non-scaling-stroke"/></g><defs><path id="path-171138679037728" d="M6.464,7.088c0.04,-0.264 0.128,-0.496 0.24,-0.696c0.112,-0.2 0.272,-0.368 0.472,-0.496c0.192,-0.12 0.432,-0.176 0.728,-0.184c0.184,0.008 0.352,0.04 0.504,0.104c0.16,0.072 0.304,0.168 0.416,0.288c0.112,0.12 0.2,0.264 0.272,0.424c0.072,0.16 0.104,0.336 0.112,0.512h1.432c-0.016,-0.376 -0.088,-0.72 -0.224,-1.032c-0.136,-0.312 -0.32,-0.584 -0.56,-0.808c-0.24,-0.224 -0.528,-0.4 -0.864,-0.528c-0.336,-0.128 -0.704,-0.184 -1.112,-0.184c-0.52,0 -0.976,0.088 -1.36,0.272c-0.384,0.184 -0.704,0.424 -0.96,0.736c-0.256,0.312 -0.448,0.672 -0.568,1.088c-0.12,0.416 -0.192,0.848 -0.192,1.312v0.216c0,0.464 0.064,0.896 0.184,1.312c0.12,0.416 0.312,0.776 0.568,1.08c0.256,0.304 0.576,0.552 0.96,0.728c0.384,0.176 0.84,0.272 1.36,0.272c0.376,0 0.728,-0.064 1.056,-0.184c0.328,-0.12 0.616,-0.288 0.864,-0.504c0.248,-0.216 0.448,-0.464 0.592,-0.752c0.144,-0.288 0.232,-0.592 0.24,-0.92h-1.432c-0.008,0.168 -0.048,0.32 -0.12,0.464c-0.072,0.144 -0.168,0.264 -0.288,0.368c-0.12,0.104 -0.256,0.184 -0.416,0.24c-0.152,0.056 -0.312,0.072 -0.48,0.08c-0.288,-0.008 -0.528,-0.064 -0.712,-0.184c-0.2,-0.128 -0.36,-0.296 -0.472,-0.496c-0.112,-0.2 -0.2,-0.44 -0.24,-0.704c-0.04,-0.264 -0.064,-0.536 -0.064,-0.8v-0.216c0,-0.28 0.024,-0.544 0.064,-0.808zM8,0c-4.416,0 -8,3.584 -8,8c0,4.416 3.584,8 8,8c4.416,0 8,-3.584 8,-8c0,-4.416 -3.584,-8 -8,-8zM8,14.4c-3.528,0 -6.4,-2.872 -6.4,-6.4c0,-3.528 2.872,-6.4 6.4,-6.4c3.528,0 6.4,2.872 6.4,6.4c0,3.528 -2.872,6.4 -6.4,6.4z" vector-effect="non-scaling-stroke"/></defs></g></svg>