<svg version="1.2" xmlns="http://www.w3.org/2000/svg" xmlns:xlink="http://www.w3.org/1999/xlink" overflow="visible" preserveAspectRatio="none" viewBox="0 0 14.999999999999996 14.000000000000023" width="14.999999999999996" height="14.000000000000023"><g transform="translate(0, 0)"><g transform="translate(0.000028240892874231704, 2.3388170613324413e-14) rotate(0)"><path d="M7.49997,0c-3.27191,-0.00113 -6.16662,2.15834 -7.15165,5.33517c-0.98503,3.17682 0.16717,6.63713 2.84662,8.54902l0.16188,0.11582h8.2863l0.16188,-0.11582c2.67945,-1.91188 3.83165,-5.37219 2.84662,-8.54902c-0.98503,-3.17682 -3.87974,-5.33629 -7.15165,-5.33517zM11.24251,12.72727h-7.48505c-2.15596,-1.64123 -3.03761,-4.5036 -2.18826,-7.10446c0.84935,-2.60086 3.23886,-4.3558 5.93079,-4.3558c2.69193,0 5.08144,1.75495 5.93079,4.3558c0.84935,2.60086 -0.0323,5.46323 -2.18826,7.10446zM12.50002,7.63636c0.00367,1.3697 -0.53903,2.68222 -1.50376,3.63682l-0.87501,-0.91c0.97168,-0.95997 1.35361,-2.38209 0.99688,-3.71191l0.98438,-1.00227c0.2626,0.62844 0.3978,1.30441 0.3975,1.98736zM3.74997,7.63636c-0.00351,1.02663 0.40249,2.01072 1.12501,2.72682l-0.87501,0.91c-1.71444,-1.71203 -1.99138,-4.42324 -0.65965,-6.45785c1.33173,-2.0346 3.89599,-2.81792 6.10781,-1.86579l-0.98063,1.00227c-1.12564,-0.31223 -2.32991,-0.07108 -3.25559,0.6519c-0.92568,0.72299 -1.46646,1.84479 -1.46194,3.03264zM8.70375,7.31055c0.15468,0.56633 -0.08507,1.16764 -0.58368,1.46395c-0.49861,0.29631 -1.13074,0.21312 -1.53897,-0.20253c-0.40823,-0.41565 -0.48994,-1.05927 -0.19892,-1.56694c0.29102,-0.50767 0.8816,-0.75178 1.43782,-0.59429l2.67564,-2.72427l0.88376,0.89982z" style="stroke-width: 0; stroke-linecap: butt; stroke-linejoin: miter; fill: rgb(213, 223, 232);" vector-effect="non-scaling-stroke"/></g><defs><path id="path-17113923184286257" d="M7.49997,0c-3.27191,-0.00113 -6.16662,2.15834 -7.15165,5.33517c-0.98503,3.17682 0.16717,6.63713 2.84662,8.54902l0.16188,0.11582h8.2863l0.16188,-0.11582c2.67945,-1.91188 3.83165,-5.37219 2.84662,-8.54902c-0.98503,-3.17682 -3.87974,-5.33629 -7.15165,-5.33517zM11.24251,12.72727h-7.48505c-2.15596,-1.64123 -3.03761,-4.5036 -2.18826,-7.10446c0.84935,-2.60086 3.23886,-4.3558 5.93079,-4.3558c2.69193,0 5.08144,1.75495 5.93079,4.3558c0.84935,2.60086 -0.0323,5.46323 -2.18826,7.10446zM12.50002,7.63636c0.00367,1.3697 -0.53903,2.68222 -1.50376,3.63682l-0.87501,-0.91c0.97168,-0.95997 1.35361,-2.38209 0.99688,-3.71191l0.98438,-1.00227c0.2626,0.62844 0.3978,1.30441 0.3975,1.98736zM3.74997,7.63636c-0.00351,1.02663 0.40249,2.01072 1.12501,2.72682l-0.87501,0.91c-1.71444,-1.71203 -1.99138,-4.42324 -0.65965,-6.45785c1.33173,-2.0346 3.89599,-2.81792 6.10781,-1.86579l-0.98063,1.00227c-1.12564,-0.31223 -2.32991,-0.07108 -3.25559,0.6519c-0.92568,0.72299 -1.46646,1.84479 -1.46194,3.03264zM8.70375,7.31055c0.15468,0.56633 -0.08507,1.16764 -0.58368,1.46395c-0.49861,0.29631 -1.13074,0.21312 -1.53897,-0.20253c-0.40823,-0.41565 -0.48994,-1.05927 -0.19892,-1.56694c0.29102,-0.50767 0.8816,-0.75178 1.43782,-0.59429l2.67564,-2.72427l0.88376,0.89982z" vector-effect="non-scaling-stroke"/></defs></g></svg>