<svg version="1.2" xmlns="http://www.w3.org/2000/svg" xmlns:xlink="http://www.w3.org/1999/xlink" overflow="visible" preserveAspectRatio="none" viewBox="0 0 24 24" width="36" height="37"><g><path xmlns:default="http://www.w3.org/2000/svg" id="paperclip" d="M19.28,17.13c0.02-0.92-0.34-1.81-1-2.45l-6-6c-0.4-0.43-0.96-0.67-1.55-0.66c-1.1,0-2,0.9-2,2  c-0.01,0.59,0.23,1.15,0.66,1.55l4.27,4.27c0.06,0.06,0.14,0.1,0.23,0.1c0.19-0.05,0.37-0.16,0.49-0.32  c0.16-0.12,0.27-0.3,0.32-0.49c0-0.09-0.04-0.17-0.1-0.23l-4.41-4.27c-0.16-0.16-0.25-0.37-0.26-0.59c-0.01-0.38,0.28-0.69,0.66-0.7  c0.01,0,0.03,0,0.04,0c0.23,0,0.45,0.09,0.62,0.25l6,6c0.46,0.38,0.73,0.94,0.74,1.54c0.02,0.83-0.63,1.52-1.46,1.54  c-0.03,0-0.05,0-0.08,0c-0.58,0.01-1.14-0.21-1.54-0.63L6.83,9.93C6.3,9.45,5.99,8.76,5.99,8.04c0-0.71,0.29-1.39,0.8-1.88  c0.48-0.51,1.16-0.79,1.86-0.78c0.71,0,1.39,0.29,1.88,0.8l6.31,6.32c0.06,0.06,0.15,0.1,0.24,0.1c0.19-0.05,0.36-0.16,0.48-0.32  c0.16-0.12,0.27-0.29,0.32-0.48c0-0.09-0.04-0.17-0.1-0.23l-6.29-6.31c-0.74-0.78-1.77-1.22-2.84-1.22c-1.06-0.01-2.08,0.43-2.8,1.2  C5.1,5.98,4.68,6.99,4.7,8.04c-0.01,1.06,0.42,2.08,1.18,2.82l8.11,8.09c0.64,0.66,1.53,1.02,2.45,1c1.55,0.03,2.83-1.21,2.86-2.76  c0-0.03,0-0.07,0-0.1l0,0L19.28,17.13z" style="fill: rgb(129, 139, 149);" vector-effect="non-scaling-stroke"/></g></svg>