<svg version="1.2" xmlns="http://www.w3.org/2000/svg" xmlns:xlink="http://www.w3.org/1999/xlink" overflow="visible" preserveAspectRatio="none" viewBox="0 0 27 19.30994062814099" width="27" height="19.30994062814099"><g transform="translate(1, 1)"><g transform="translate(0, 0) rotate(0)"><path d="M0.48063,0c-0.26544,0 -0.48063,0.21518 -0.48063,0.48063v0.48063c0,0 0,0 0,0v14.34868c0,1.10457 0.89543,2 2,2h21c1.10457,0 2,-0.89543 2,-2v-14.34868c0,0 0,0 0,0v-0.48063c0,-0.26544 -0.21518,-0.48063 -0.48063,-0.48063zM23.65497,0.96126l-11.15497,11.15497l-11.15497,-11.15497zM24.03874,16.34868h-23.07749v-14.42617l11.53874,11.53874l11.53874,-11.53874z" style="stroke: rgb(69, 83, 98); stroke-width: 1; stroke-linecap: butt; stroke-linejoin: miter; fill: transparent;" vector-effect="non-scaling-stroke"/></g><defs><path id="path-17116476532502760" d="M0.48063,0c-0.26544,0 -0.48063,0.21518 -0.48063,0.48063v0.48063c0,0 0,0 0,0v14.34868c0,1.10457 0.89543,2 2,2h21c1.10457,0 2,-0.89543 2,-2v-14.34868c0,0 0,0 0,0v-0.48063c0,-0.26544 -0.21518,-0.48063 -0.48063,-0.48063zM23.65497,0.96126l-11.15497,11.15497l-11.15497,-11.15497zM24.03874,16.34868h-23.07749v-14.42617l11.53874,11.53874l11.53874,-11.53874z" vector-effect="non-scaling-stroke"/></defs></g></svg>