<svg version="1.2" xmlns="http://www.w3.org/2000/svg" xmlns:xlink="http://www.w3.org/1999/xlink" overflow="visible" preserveAspectRatio="none" viewBox="0 0 24 24" width="25" height="25"><g><path xmlns:default="http://www.w3.org/2000/svg" id="file-excel-o" d="M16,3.38c-0.23-0.22-0.5-0.39-0.79-0.5c-0.29-0.13-0.6-0.2-0.92-0.21H5c-0.55,0-1,0.45-1,1v16.66  c0,0.55,0.45,1,1,1h14c0.55,0,1-0.45,1-1v-12c-0.01-0.32-0.08-0.63-0.21-0.92c-0.11-0.29-0.28-0.56-0.5-0.79L16,3.38z M15.05,4.32  l3.26,3.26c0.11,0.13,0.19,0.27,0.23,0.43h-3.87V4.09c0.15,0.05,0.3,0.12,0.42,0.23H15.05z M18.66,20H5.34V4h8v4.34  c0,0.55,0.45,1,1,1h4.33V20l0,0H18.66z M8.47,17.56h0.71l2-2.95l-2-2.83H8.52v-1.11h3v1.11h-0.77l1.1,1.66  c0.07,0.07,0.13,0.15,0.18,0.24c0.02,0.03,0.04,0.06,0.05,0.1l0,0l0,0l0.09-0.14l0.1-0.17l1.07-1.66h-0.72v-1.14h2.9v1.11h-0.7  l-2,2.94l2,2.84h0.71v1.1h-3v-1.1h0.79l-1.11-1.68l-0.07-0.09L12,15.71v-0.08c-0.02-0.03-0.04-0.06-0.05-0.1l0,0l0,0l-0.08,0.14  l-0.1,0.17l-1.07,1.68h0.7v1.1H8.47v-1.1l0,0V17.56z" style="fill: rgb(6, 214, 160);" vector-effect="non-scaling-stroke"/></g></svg>