<svg version="1.2" xmlns="http://www.w3.org/2000/svg" xmlns:xlink="http://www.w3.org/1999/xlink" overflow="visible" preserveAspectRatio="none" viewBox="0 0 30.00001 28.000003981901312" width="30.00001" height="28.000003981901312"><g transform="translate(0, 0)"><g transform="translate(0.000010000000000509601, -0.000006018098682535229) rotate(0)"><path d="M17,0.93222v3.06778h12.0625c0.5175,0 0.9375,0.40727 0.9375,0.90909v18.18182c0,0.50182 -0.42,0.90909 -0.9375,0.90909h-12.0625v3.06663c0,0.27628 -0.12467,0.54136 -0.34189,0.7187c-0.17,0.14001 -0.38533,0.21468 -0.60256,0.21468c-0.05667,0 -0.11711,-0.0056 -0.17378,-0.0168l-15.11111,-2.80012c-0.44767,-0.08214 -0.77067,-0.46855 -0.77067,-0.91657v-20.53418c0,-0.44989 0.323,-0.83443 0.77067,-0.91657l15.11111,-2.80012c0.27578,-0.0504 0.561,0.0224 0.77633,0.19787c0.21722,0.17734 0.34189,0.44055 0.34189,0.7187zM15.11111,2.05786l-13.22222,2.44917v18.98478l13.22222,2.44917v-2.42062c-0.07089,-0.12792 -0.11111,-0.27416 -0.11111,-0.42945c0,-0.1553 0.04022,-0.30154 0.11111,-0.42945v-2.77745c-0.07089,-0.12792 -0.11111,-0.27416 -0.11111,-0.42945c0,-0.1553 0.04022,-0.30154 0.11111,-0.42945v-2.77745c-0.07089,-0.12792 -0.11111,-0.27416 -0.11111,-0.42945c0,-0.1553 0.04022,-0.30154 0.11111,-0.42945v-2.77745c-0.07089,-0.12792 -0.11111,-0.27416 -0.11111,-0.42945c0,-0.1553 0.04022,-0.30154 0.11111,-0.42945v-2.77745c-0.07089,-0.12792 -0.11111,-0.27416 -0.11111,-0.42945c0,-0.1553 0.04022,-0.30154 0.11111,-0.42945v-2.77745c-0.07089,-0.12792 -0.11111,-0.27416 -0.11111,-0.42945c0,-0.1553 0.04022,-0.30154 0.11111,-0.42945zM13.022,9.90752l-3.05418,3.88076l2.92655,3.32976c0.34125,0.38827 0.30188,0.97627 -0.08812,1.316c-0.18,0.15493 -0.39937,0.23147 -0.61875,0.23147c-0.26062,0 -0.51937,-0.10827 -0.705,-0.3192l-2.69166,-3.06251l-2.37995,3.02406c-0.18511,0.23521 -0.46467,0.35841 -0.74422,0.35841c-0.20211,0 -0.40611,-0.06347 -0.57989,-0.19601c-0.41178,-0.31548 -0.48544,-0.9035 -0.16622,-1.31045l2.60733,-3.31298l-2.60789,-2.96719c-0.34125,-0.3864 -0.30188,-0.97627 0.08812,-1.316c0.38812,-0.33973 0.97875,-0.3024 1.32375,0.08773l2.37299,2.69994l2.8268,-3.59184c0.32111,-0.40508 0.91422,-0.48162 1.326,-0.16241c0.41178,0.31548 0.48544,0.90164 0.16433,1.31045zM28.125,22.18182v-16.36364h-11.125v1.81818h2.6875c0.5175,0 0.9375,0.40727 0.9375,0.90909c0,0.50182 -0.42,0.90909 -0.9375,0.90909h-2.6875v1.81818h2.6875c0.5175,0 0.9375,0.40727 0.9375,0.90909c0,0.50182 -0.42,0.90909 -0.9375,0.90909h-2.6875v1.81818h2.6875c0.5175,0 0.9375,0.40727 0.9375,0.90909c0,0.50182 -0.42,0.90909 -0.9375,0.90909h-2.6875v1.81818h2.6875c0.5175,0 0.9375,0.40727 0.9375,0.90909c0,0.50182 -0.42,0.90909 -0.9375,0.90909h-2.6875v1.81818zM26.25,8.54545c0,0.50182 -0.42,0.90909 -0.9375,0.90909h-1.875c-0.5175,0 -0.9375,-0.40727 -0.9375,-0.90909c0,-0.50182 0.42,-0.90909 0.9375,-0.90909h1.875c0.5175,0 0.9375,0.40727 0.9375,0.90909zM26.25,12.18182c0,0.50182 -0.42,0.90909 -0.9375,0.90909h-1.875c-0.5175,0 -0.9375,-0.40727 -0.9375,-0.90909c0,-0.50182 0.42,-0.90909 0.9375,-0.90909h1.875c0.5175,0 0.9375,0.40727 0.9375,0.90909zM26.25,15.81818c0,0.50182 -0.42,0.90909 -0.9375,0.90909h-1.875c-0.5175,0 -0.9375,-0.40727 -0.9375,-0.90909c0,-0.50182 0.42,-0.90909 0.9375,-0.90909h1.875c0.5175,0 0.9375,0.40727 0.9375,0.90909zM26.25,19.45455c0,0.50182 -0.42,0.90909 -0.9375,0.90909h-1.875c-0.5175,0 -0.9375,-0.40727 -0.9375,-0.90909c0,-0.50182 0.42,-0.90909 0.9375,-0.90909h1.875c0.5175,0 0.9375,0.40727 0.9375,0.90909z" style="stroke-width: 0; stroke-linecap: butt; stroke-linejoin: miter; fill: rgb(69, 83, 98);" vector-effect="non-scaling-stroke"/></g><defs><path id="path-171233199235748889" d="M17,0.93222v3.06778h12.0625c0.5175,0 0.9375,0.40727 0.9375,0.90909v18.18182c0,0.50182 -0.42,0.90909 -0.9375,0.90909h-12.0625v3.06663c0,0.27628 -0.12467,0.54136 -0.34189,0.7187c-0.17,0.14001 -0.38533,0.21468 -0.60256,0.21468c-0.05667,0 -0.11711,-0.0056 -0.17378,-0.0168l-15.11111,-2.80012c-0.44767,-0.08214 -0.77067,-0.46855 -0.77067,-0.91657v-20.53418c0,-0.44989 0.323,-0.83443 0.77067,-0.91657l15.11111,-2.80012c0.27578,-0.0504 0.561,0.0224 0.77633,0.19787c0.21722,0.17734 0.34189,0.44055 0.34189,0.7187zM15.11111,2.05786l-13.22222,2.44917v18.98478l13.22222,2.44917v-2.42062c-0.07089,-0.12792 -0.11111,-0.27416 -0.11111,-0.42945c0,-0.1553 0.04022,-0.30154 0.11111,-0.42945v-2.77745c-0.07089,-0.12792 -0.11111,-0.27416 -0.11111,-0.42945c0,-0.1553 0.04022,-0.30154 0.11111,-0.42945v-2.77745c-0.07089,-0.12792 -0.11111,-0.27416 -0.11111,-0.42945c0,-0.1553 0.04022,-0.30154 0.11111,-0.42945v-2.77745c-0.07089,-0.12792 -0.11111,-0.27416 -0.11111,-0.42945c0,-0.1553 0.04022,-0.30154 0.11111,-0.42945v-2.77745c-0.07089,-0.12792 -0.11111,-0.27416 -0.11111,-0.42945c0,-0.1553 0.04022,-0.30154 0.11111,-0.42945v-2.77745c-0.07089,-0.12792 -0.11111,-0.27416 -0.11111,-0.42945c0,-0.1553 0.04022,-0.30154 0.11111,-0.42945zM13.022,9.90752l-3.05418,3.88076l2.92655,3.32976c0.34125,0.38827 0.30188,0.97627 -0.08812,1.316c-0.18,0.15493 -0.39937,0.23147 -0.61875,0.23147c-0.26062,0 -0.51937,-0.10827 -0.705,-0.3192l-2.69166,-3.06251l-2.37995,3.02406c-0.18511,0.23521 -0.46467,0.35841 -0.74422,0.35841c-0.20211,0 -0.40611,-0.06347 -0.57989,-0.19601c-0.41178,-0.31548 -0.48544,-0.9035 -0.16622,-1.31045l2.60733,-3.31298l-2.60789,-2.96719c-0.34125,-0.3864 -0.30188,-0.97627 0.08812,-1.316c0.38812,-0.33973 0.97875,-0.3024 1.32375,0.08773l2.37299,2.69994l2.8268,-3.59184c0.32111,-0.40508 0.91422,-0.48162 1.326,-0.16241c0.41178,0.31548 0.48544,0.90164 0.16433,1.31045zM28.125,22.18182v-16.36364h-11.125v1.81818h2.6875c0.5175,0 0.9375,0.40727 0.9375,0.90909c0,0.50182 -0.42,0.90909 -0.9375,0.90909h-2.6875v1.81818h2.6875c0.5175,0 0.9375,0.40727 0.9375,0.90909c0,0.50182 -0.42,0.90909 -0.9375,0.90909h-2.6875v1.81818h2.6875c0.5175,0 0.9375,0.40727 0.9375,0.90909c0,0.50182 -0.42,0.90909 -0.9375,0.90909h-2.6875v1.81818h2.6875c0.5175,0 0.9375,0.40727 0.9375,0.90909c0,0.50182 -0.42,0.90909 -0.9375,0.90909h-2.6875v1.81818zM26.25,8.54545c0,0.50182 -0.42,0.90909 -0.9375,0.90909h-1.875c-0.5175,0 -0.9375,-0.40727 -0.9375,-0.90909c0,-0.50182 0.42,-0.90909 0.9375,-0.90909h1.875c0.5175,0 0.9375,0.40727 0.9375,0.90909zM26.25,12.18182c0,0.50182 -0.42,0.90909 -0.9375,0.90909h-1.875c-0.5175,0 -0.9375,-0.40727 -0.9375,-0.90909c0,-0.50182 0.42,-0.90909 0.9375,-0.90909h1.875c0.5175,0 0.9375,0.40727 0.9375,0.90909zM26.25,15.81818c0,0.50182 -0.42,0.90909 -0.9375,0.90909h-1.875c-0.5175,0 -0.9375,-0.40727 -0.9375,-0.90909c0,-0.50182 0.42,-0.90909 0.9375,-0.90909h1.875c0.5175,0 0.9375,0.40727 0.9375,0.90909zM26.25,19.45455c0,0.50182 -0.42,0.90909 -0.9375,0.90909h-1.875c-0.5175,0 -0.9375,-0.40727 -0.9375,-0.90909c0,-0.50182 0.42,-0.90909 0.9375,-0.90909h1.875c0.5175,0 0.9375,0.40727 0.9375,0.90909z" vector-effect="non-scaling-stroke"/></defs></g></svg>