<svg version="1.2" xmlns="http://www.w3.org/2000/svg" xmlns:xlink="http://www.w3.org/1999/xlink" overflow="visible" preserveAspectRatio="none" viewBox="0 0 24 24" width="30" height="30"><g><path xmlns:default="http://www.w3.org/2000/svg" id="bell-o" d="M12,20.5c-1.01,0-1.83-0.82-1.83-1.83c0.02-0.09,0.11-0.15,0.21-0.12c0.06,0.02,0.11,0.06,0.12,0.12  c0.01,0.83,0.67,1.49,1.5,1.5c0.09-0.02,0.18,0.03,0.21,0.12s-0.03,0.18-0.12,0.21C12.05,20.51,12.03,20.51,12,20.5z M5.23,17.33  C7.08,15.25,8,12.36,8,8.67c0.01-0.38,0.09-0.75,0.25-1.09C8.44,7.18,8.69,6.82,9,6.5c0.36-0.37,0.79-0.66,1.27-0.84  c1.14-0.44,2.39-0.44,3.53,0c0.45,0.19,0.86,0.48,1.2,0.84c0.3,0.32,0.54,0.68,0.72,1.07c0.17,0.34,0.27,0.72,0.28,1.1  c0,3.69,0.92,6.58,2.77,8.66H5.23z M20.66,17.33c-0.34-0.28-0.66-0.59-0.95-0.92c-0.33-0.39-0.63-0.8-0.88-1.24  c-0.31-0.52-0.57-1.08-0.78-1.65c-0.24-0.7-0.41-1.41-0.52-2.14c-0.14-0.9-0.21-1.8-0.2-2.71c-0.02-1.1-0.45-2.15-1.22-2.94  c-0.83-0.92-1.97-1.5-3.2-1.65C12.97,3.95,13,3.81,13,3.67c0-0.55-0.45-1-1-1s-1,0.45-1,1c0,0.14,0.02,0.28,0.08,0.41  c-1.23,0.15-2.37,0.73-3.2,1.65C7.12,6.52,6.69,7.57,6.67,8.67c0.01,0.91-0.06,1.81-0.2,2.71c-0.11,0.73-0.28,1.44-0.52,2.14  c-0.21,0.57-0.47,1.13-0.78,1.65c-0.25,0.44-0.55,0.85-0.88,1.24C4,16.74,3.68,17.05,3.34,17.33c0.01,0.73,0.6,1.32,1.33,1.33h4.66  c0,1.47,1.2,2.67,2.67,2.67s2.67-1.2,2.67-2.67h4.66C20.06,18.65,20.65,18.06,20.66,17.33L20.66,17.33z" style="fill: rgb(69, 83, 98);" vector-effect="non-scaling-stroke"/></g></svg>