<svg version="1.2" xmlns="http://www.w3.org/2000/svg" xmlns:xlink="http://www.w3.org/1999/xlink" overflow="visible" preserveAspectRatio="none" viewBox="0 0 24 24" width="30" height="30"><g><path xmlns:default="http://www.w3.org/2000/svg" id="play-circle-o" d="M16.33,12c0.01-0.24-0.12-0.46-0.33-0.57L10.33,8.1c-0.2-0.13-0.47-0.13-0.67,0  C9.45,8.22,9.32,8.44,9.33,8.68v6.66c-0.01,0.24,0.12,0.46,0.33,0.58C9.77,15.97,9.88,16,10,16c0.12,0,0.23-0.03,0.33-0.09L16,12.57  C16.21,12.46,16.34,12.24,16.33,12L16.33,12z M16.9,14.84c-0.49,0.85-1.21,1.57-2.06,2.06c-1.76,1.01-3.92,1.01-5.68,0  c-0.85-0.49-1.57-1.21-2.06-2.06c-1.01-1.76-1.01-3.92,0-5.68C7.59,8.31,8.31,7.59,9.16,7.1c1.76-1.01,3.92-1.01,5.68,0  c0.85,0.49,1.57,1.21,2.06,2.06C17.91,10.92,17.91,13.08,16.9,14.84z M18.9,7.98c-0.7-1.2-1.7-2.2-2.9-2.9  C14.79,4.37,13.41,3.99,12,4c-1.41-0.01-2.79,0.37-4,1.08C6.79,5.78,5.78,6.79,5.08,8C4.37,9.21,3.99,10.59,4,12  c-0.01,1.41,0.36,2.79,1.07,4c0.7,1.21,1.71,2.22,2.93,2.92c1.21,0.71,2.59,1.09,4,1.08c1.41,0.01,2.79-0.36,4-1.07  c1.21-0.7,2.22-1.71,2.92-2.93c0.71-1.21,1.09-2.59,1.08-4c0.01-1.41-0.37-2.79-1.08-4L18.9,7.98z" style="fill: rgb(69, 83, 98);" vector-effect="non-scaling-stroke"/></g></svg>