<svg version="1.2" xmlns="http://www.w3.org/2000/svg" xmlns:xlink="http://www.w3.org/1999/xlink" overflow="visible" preserveAspectRatio="none" viewBox="0 0 24 24" width="30" height="30"><g><path xmlns:default="http://www.w3.org/2000/svg" id="file-video-o" d="M16,3.38c-0.23-0.22-0.5-0.39-0.79-0.5c-0.29-0.13-0.6-0.2-0.92-0.21H5c-0.55,0-1,0.45-1,1v16.66  c0,0.55,0.45,1,1,1h14c0.55,0,1-0.45,1-1v-12c-0.01-0.32-0.08-0.63-0.21-0.92c-0.11-0.29-0.28-0.56-0.5-0.79L16,3.38z M15.05,4.32  l3.26,3.26c0.11,0.13,0.19,0.27,0.23,0.43h-3.87V4.09c0.15,0.05,0.3,0.12,0.42,0.23H15.05z M18.66,20H5.34V4h8v4.34  c0,0.55,0.45,1,1,1h4.33V20l0,0H18.66z M8,10.67c-0.73,0.01-1.32,0.6-1.33,1.33v4c0.01,0.73,0.6,1.32,1.33,1.33h4  c0.73-0.01,1.32-0.6,1.33-1.33v-4c-0.01-0.73-0.6-1.32-1.33-1.33H8z M17,10.67c-0.09,0-0.18,0.03-0.24,0.09L14,13.53v0.94l2.76,2.77  c0.06,0.06,0.15,0.09,0.24,0.09h0.12c0.14-0.05,0.23-0.18,0.21-0.33v-6c0.01-0.14-0.08-0.27-0.21-0.31L17,10.67z" style="fill: rgb(69, 83, 98);" vector-effect="non-scaling-stroke"/></g></svg>