<svg version="1.2" xmlns="http://www.w3.org/2000/svg" xmlns:xlink="http://www.w3.org/1999/xlink" overflow="visible" preserveAspectRatio="none" viewBox="0 0 17.000000000000007 17" width="17.000000000000007" height="17"><g transform="translate(1, 1)"><g transform="translate(0, 0) rotate(0)"><path d="M0,7.33333c0,0.55228 0.44772,1 1,1h4.66667c0.55228,0 1,-0.44772 1,-1v-6.33333c0,-0.55228 -0.44772,-1 -1,-1h-4.66667c-0.55228,0 -1,0.44772 -1,1zM0,14c0,0.55228 0.44772,1 1,1h4.66667c0.55228,0 1,-0.44772 1,-1v-3c0,-0.55228 -0.44772,-1 -1,-1h-4.66667c-0.55228,0 -1,0.44772 -1,1zM8.33333,14c0,0.55228 0.44772,1 1,1h4.66667c0.55228,0 1,-0.44772 1,-1v-6.33333c0,-0.55228 -0.44772,-1 -1,-1h-4.66667c-0.55228,0 -1,0.44772 -1,1zM9.33333,0c-0.55228,0 -1,0.44772 -1,1v3c0,0.55228 0.44772,1 1,1h4.66667c0.55228,0 1,-0.44772 1,-1v-3c0,-0.55228 -0.44772,-1 -1,-1z" style="stroke: rgb(213, 223, 232); stroke-width: 1; stroke-linecap: butt; stroke-linejoin: miter; fill: transparent;" vector-effect="non-scaling-stroke"/></g><defs><path id="path-171139334811425828" d="M0,7.33333c0,0.55228 0.44772,1 1,1h4.66667c0.55228,0 1,-0.44772 1,-1v-6.33333c0,-0.55228 -0.44772,-1 -1,-1h-4.66667c-0.55228,0 -1,0.44772 -1,1zM0,14c0,0.55228 0.44772,1 1,1h4.66667c0.55228,0 1,-0.44772 1,-1v-3c0,-0.55228 -0.44772,-1 -1,-1h-4.66667c-0.55228,0 -1,0.44772 -1,1zM8.33333,14c0,0.55228 0.44772,1 1,1h4.66667c0.55228,0 1,-0.44772 1,-1v-6.33333c0,-0.55228 -0.44772,-1 -1,-1h-4.66667c-0.55228,0 -1,0.44772 -1,1zM9.33333,0c-0.55228,0 -1,0.44772 -1,1v3c0,0.55228 0.44772,1 1,1h4.66667c0.55228,0 1,-0.44772 1,-1v-3c0,-0.55228 -0.44772,-1 -1,-1z" vector-effect="non-scaling-stroke"/></defs></g></svg>