<svg version="1.2" xmlns="http://www.w3.org/2000/svg" xmlns:xlink="http://www.w3.org/1999/xlink" overflow="visible" preserveAspectRatio="none" viewBox="0 0 18 23.9" width="18" height="23.9"><g transform="translate(0, 0)"><g transform="translate(4.440892098500626e-16, 0) rotate(0)"><path d="M18,23.9l-3.663,-2.511l-2.664,1.825l-2.666,-1.826l-2.666,1.824l-2.671,-1.826l-3.67,2.514v-20.9c0,-1.65685 1.34315,-3 3,-3h12c1.65685,0 3,1.34315 3,3zM3.67,18.962l2.67,1.826l2.667,-1.826l2.666,1.826l2.665,-1.827l1.662,1.139v-17.1c0,-0.55228 -0.44772,-1 -1,-1h-12c-0.55228,0 -1,0.44772 -1,1v17.1zM4,10v-2h10v2zM4,14v-2h8v2z" style="stroke-width: 0; stroke-linecap: butt; stroke-linejoin: miter; fill: rgb(69, 83, 98);" vector-effect="non-scaling-stroke"/></g><defs><path id="path-171234568521583909" d="M18,23.9l-3.663,-2.511l-2.664,1.825l-2.666,-1.826l-2.666,1.824l-2.671,-1.826l-3.67,2.514v-20.9c0,-1.65685 1.34315,-3 3,-3h12c1.65685,0 3,1.34315 3,3zM3.67,18.962l2.67,1.826l2.667,-1.826l2.666,1.826l2.665,-1.827l1.662,1.139v-17.1c0,-0.55228 -0.44772,-1 -1,-1h-12c-0.55228,0 -1,0.44772 -1,1v17.1zM4,10v-2h10v2zM4,14v-2h8v2z" vector-effect="non-scaling-stroke"/></defs></g></svg>