<svg version="1.2" xmlns="http://www.w3.org/2000/svg" xmlns:xlink="http://www.w3.org/1999/xlink" overflow="visible" preserveAspectRatio="none" viewBox="0 0 26.999998006981308 21.999995944991248" width="26.999998006981308" height="21.999995944991248"><g transform="translate(2, 2)"><g transform="translate(0, -0.000004055008751428768) rotate(0)"><path d="M21.10073,1.35429c-0.03698,0.60162 -0.23419,1.19096 -0.59163,1.68208c-0.33279,0.55251 -0.73953,1.05591 -1.23256,1.47336l-5.15209,4.05173l-0.44372,0.38062l-0.59163,0.47884l-0.61628,0.40517c-0.20953,0.14734 -0.41907,0.25784 -0.65326,0.35606c-0.18488,0.07367 -0.38209,0.1105 -0.5793,0.1105v0c-0.18488,0 -0.38209,-0.03683 -0.55465,-0.1105c-0.23419,-0.09822 -0.46837,-0.20873 -0.67791,-0.35606l-0.56698,-0.40517l-0.59163,-0.47884l-0.44372,-0.38062l-5.13976,-4.05173c-1.18325,-0.8349 -1.87349,-2.18548 -1.88581,-3.622c0,-0.23328 0.18488,-0.41745 0.41907,-0.41745v0h18.88277c0.06163,0.02456 0.12326,0.02456 0.18488,0c0,0 0.08628,0 0.11093,0.09822c-0.01233,0.07367 0.0493,0.13506 0.12326,0.14734v0c0,0 0,0 0,0.15961v0.47884zM22.39556,0.60211c-0.38209,-0.3929 -0.91209,-0.6139 -1.45442,-0.60162h-18.88277c-1.13395,0 -2.05837,0.92085 -2.05837,2.05042v0v13.89867c0,1.12957 0.92442,2.05042 2.05837,2.05042v0h18.88277c1.13395,0 2.05837,-0.92085 2.05837,-2.05042v0v-13.89867c0.01233,-0.54023 -0.20953,-1.06818 -0.60395,-1.4488z" style="stroke: rgb(69, 83, 98); stroke-width: 2; stroke-linecap: butt; stroke-linejoin: miter; fill: rgba(0, 0, 0, 0);" vector-effect="non-scaling-stroke"/></g><defs><path id="path-1711402136884159983" d="M21.10073,1.35429c-0.03698,0.60162 -0.23419,1.19096 -0.59163,1.68208c-0.33279,0.55251 -0.73953,1.05591 -1.23256,1.47336l-5.15209,4.05173l-0.44372,0.38062l-0.59163,0.47884l-0.61628,0.40517c-0.20953,0.14734 -0.41907,0.25784 -0.65326,0.35606c-0.18488,0.07367 -0.38209,0.1105 -0.5793,0.1105v0c-0.18488,0 -0.38209,-0.03683 -0.55465,-0.1105c-0.23419,-0.09822 -0.46837,-0.20873 -0.67791,-0.35606l-0.56698,-0.40517l-0.59163,-0.47884l-0.44372,-0.38062l-5.13976,-4.05173c-1.18325,-0.8349 -1.87349,-2.18548 -1.88581,-3.622c0,-0.23328 0.18488,-0.41745 0.41907,-0.41745v0h18.88277c0.06163,0.02456 0.12326,0.02456 0.18488,0c0,0 0.08628,0 0.11093,0.09822c-0.01233,0.07367 0.0493,0.13506 0.12326,0.14734v0c0,0 0,0 0,0.15961v0.47884zM22.39556,0.60211c-0.38209,-0.3929 -0.91209,-0.6139 -1.45442,-0.60162h-18.88277c-1.13395,0 -2.05837,0.92085 -2.05837,2.05042v0v13.89867c0,1.12957 0.92442,2.05042 2.05837,2.05042v0h18.88277c1.13395,0 2.05837,-0.92085 2.05837,-2.05042v0v-13.89867c0.01233,-0.54023 -0.20953,-1.06818 -0.60395,-1.4488z" vector-effect="non-scaling-stroke"/></defs></g></svg>