<svg version="1.2" xmlns="http://www.w3.org/2000/svg" xmlns:xlink="http://www.w3.org/1999/xlink" overflow="visible" preserveAspectRatio="none" viewBox="0 0 15.001402876884606 15" width="15.001402876884606" height="15"><g transform="translate(0, 0)"><g transform="translate(0.0014211728748369477, 0.0011248235975930207) rotate(0)"><path d="M11.37363,5.89062l0.28379,-0.5463c0.23316,-0.45004 0.27567,-0.96196 0.11939,-1.44387c-0.15627,-0.48192 -0.49195,-0.87132 -0.9214,-1.08509l-3.84998,-2.1358c-2.46664,-1.28198 -4.32006,-0.46816 -5.20457,0.13064c-0.37318,0.2519 -0.57947,0.67006 -0.55196,1.11822c0.02688,0.44254 0.27879,0.82757 0.67261,1.03134l2.5154,1.35511l-4.24442,7.97379c-0.45195,0.90945 -0.08689,2.02954 0.8145,2.49833c0.27129,0.14126 0.56571,0.21189 0.86201,0.21189c0.19566,0 0.39256,-0.03063 0.58447,-0.09313c0.48195,-0.15751 0.87201,-0.49442 1.08892,-0.93258l4.19254,-7.88128l1.1233,0.60505c0.27067,0.13814 0.56009,0.20377 0.84638,0.20377c0.67886,0 1.33646,-0.36941 1.66964,-1.00946zM2.43175,13.40237c-0.07501,0.15126 -0.20441,0.26315 -0.36506,0.31565c-0.16128,0.0525 -0.33193,0.03875 -0.48195,-0.03938c-0.30005,-0.15564 -0.42194,-0.52942 -0.27942,-0.81694l4.23379,-7.95254l1.09642,0.59067zM10.54928,4.76915l-0.28317,0.5463c-0.15815,0.30315 -0.53571,0.42379 -0.82575,0.2744l-6.92984,-3.73219c-0.00375,-0.00188 -0.00313,-0.00938 -0.0075,-0.01125c0.46507,-0.31503 1.11017,-0.5988 1.91843,-0.5988c0.58197,0 1.24832,0.14689 1.99406,0.53379l3.85873,2.14018c0.15065,0.07563 0.26254,0.20502 0.31505,0.36566c0.05188,0.16064 0.03813,0.33128 -0.04001,0.48192zM14.99998,3.74844c0,0.34565 -0.27942,0.62505 -0.6251,0.62505h-0.6251c-0.34568,0 -0.6251,-0.2794 -0.6251,-0.62505c0,-0.34565 0.27942,-0.62505 0.6251,-0.62505h0.6251c0.34568,0 0.6251,0.2794 0.6251,0.62505zM12.53272,8.36382c0.21316,0.2719 0.16565,0.66381 -0.10689,0.87695c-0.11439,0.09001 -0.24941,0.13314 -0.38444,0.13314c-0.18565,0 -0.36943,-0.08251 -0.49258,-0.24002l-0.48945,-0.62505c-0.21316,-0.2719 -0.16565,-0.66381 0.10689,-0.87695c0.27129,-0.21377 0.66385,-0.16564 0.87701,0.10688zM14.36926,6.86807c-0.11502,0.20314 -0.3263,0.31815 -0.54509,0.31815c-0.10377,0 -0.20941,-0.02563 -0.3063,-0.08063l-0.55509,-0.31253c-0.30005,-0.16939 -0.40694,-0.55067 -0.23754,-0.85132c0.1694,-0.2994 0.55009,-0.40816 0.85138,-0.23752l0.55509,0.31253c0.30005,0.16939 0.40694,0.55067 0.23754,0.85132z" style="stroke-width: 0; stroke-linecap: butt; stroke-linejoin: miter; fill: rgb(213, 223, 232);" vector-effect="non-scaling-stroke"/></g><defs><path id="path-17113923184306272" d="M11.37363,5.89062l0.28379,-0.5463c0.23316,-0.45004 0.27567,-0.96196 0.11939,-1.44387c-0.15627,-0.48192 -0.49195,-0.87132 -0.9214,-1.08509l-3.84998,-2.1358c-2.46664,-1.28198 -4.32006,-0.46816 -5.20457,0.13064c-0.37318,0.2519 -0.57947,0.67006 -0.55196,1.11822c0.02688,0.44254 0.27879,0.82757 0.67261,1.03134l2.5154,1.35511l-4.24442,7.97379c-0.45195,0.90945 -0.08689,2.02954 0.8145,2.49833c0.27129,0.14126 0.56571,0.21189 0.86201,0.21189c0.19566,0 0.39256,-0.03063 0.58447,-0.09313c0.48195,-0.15751 0.87201,-0.49442 1.08892,-0.93258l4.19254,-7.88128l1.1233,0.60505c0.27067,0.13814 0.56009,0.20377 0.84638,0.20377c0.67886,0 1.33646,-0.36941 1.66964,-1.00946zM2.43175,13.40237c-0.07501,0.15126 -0.20441,0.26315 -0.36506,0.31565c-0.16128,0.0525 -0.33193,0.03875 -0.48195,-0.03938c-0.30005,-0.15564 -0.42194,-0.52942 -0.27942,-0.81694l4.23379,-7.95254l1.09642,0.59067zM10.54928,4.76915l-0.28317,0.5463c-0.15815,0.30315 -0.53571,0.42379 -0.82575,0.2744l-6.92984,-3.73219c-0.00375,-0.00188 -0.00313,-0.00938 -0.0075,-0.01125c0.46507,-0.31503 1.11017,-0.5988 1.91843,-0.5988c0.58197,0 1.24832,0.14689 1.99406,0.53379l3.85873,2.14018c0.15065,0.07563 0.26254,0.20502 0.31505,0.36566c0.05188,0.16064 0.03813,0.33128 -0.04001,0.48192zM14.99998,3.74844c0,0.34565 -0.27942,0.62505 -0.6251,0.62505h-0.6251c-0.34568,0 -0.6251,-0.2794 -0.6251,-0.62505c0,-0.34565 0.27942,-0.62505 0.6251,-0.62505h0.6251c0.34568,0 0.6251,0.2794 0.6251,0.62505zM12.53272,8.36382c0.21316,0.2719 0.16565,0.66381 -0.10689,0.87695c-0.11439,0.09001 -0.24941,0.13314 -0.38444,0.13314c-0.18565,0 -0.36943,-0.08251 -0.49258,-0.24002l-0.48945,-0.62505c-0.21316,-0.2719 -0.16565,-0.66381 0.10689,-0.87695c0.27129,-0.21377 0.66385,-0.16564 0.87701,0.10688zM14.36926,6.86807c-0.11502,0.20314 -0.3263,0.31815 -0.54509,0.31815c-0.10377,0 -0.20941,-0.02563 -0.3063,-0.08063l-0.55509,-0.31253c-0.30005,-0.16939 -0.40694,-0.55067 -0.23754,-0.85132c0.1694,-0.2994 0.55009,-0.40816 0.85138,-0.23752l0.55509,0.31253c0.30005,0.16939 0.40694,0.55067 0.23754,0.85132z" vector-effect="non-scaling-stroke"/></defs></g></svg>