<svg version="1.2" xmlns="http://www.w3.org/2000/svg" xmlns:xlink="http://www.w3.org/1999/xlink" overflow="visible" preserveAspectRatio="none" viewBox="0 0 14.999995058168706 13.999990849995857" width="14.999995058168706" height="13.999990849995857"><g transform="translate(0, 0)"><g transform="translate(-0.0000037067906129839567, -0.0000024999999993849387) rotate(0)"><path style="stroke-width: 0; stroke-linecap: butt; stroke-linejoin: miter; fill: rgb(69, 83, 98);" d="M3.09821,6.66379c1.47674,-0.00127 2.74705,-1.1244 3.03415,-2.68264c0.28711,-1.55824 -0.48893,-3.11766 -1.85359,-3.72473c-1.36466,-0.60707 -2.93793,-0.09273 -3.75779,1.2285c-0.81987,1.32124 -0.65803,3.08146 0.38655,4.20434c0.58068,0.62532 1.36903,0.97602 2.19069,0.97453zM2.23332,2.40231c0.41262,-0.44383 1.05922,-0.51231 1.54438,-0.16357c0.48516,0.34874 0.67376,1.01757 0.45045,1.59747c-0.22331,0.5799 -0.79633,0.90937 -1.36862,0.7869c-0.5723,-0.12246 -0.98448,-0.66274 -0.98448,-1.29042c-0.0009,-0.34915 0.12812,-0.68418 0.35827,-0.93038zM11.90183,7.33417c-1.47807,-0.00003 -2.75032,1.1231 -3.0387,2.68251c-0.28838,1.55942 0.48744,3.1208 1.85299,3.72927c1.36555,0.60847 2.94051,0.09455 3.76168,-1.22746c0.82118,-1.32201 0.65986,-3.08391 -0.38529,-4.20819c-0.57972,-0.62706 -1.36857,-0.97856 -2.19069,-0.97614zM12.76669,11.59723c-0.47818,0.51054 -1.25012,0.50898 -1.72652,-0.00349c-0.4764,-0.51246 -0.47785,-1.34285 -0.00324,-1.85724c0.30861,-0.33446 0.75994,-0.46585 1.18323,-0.34444c0.42329,0.12141 0.7539,0.47706 0.86675,0.9324c0.11285,0.45534 -0.00931,0.94083 -0.32024,1.2728zM13.73255,0.29536c0.17582,0.18913 0.27459,0.44563 0.27459,0.7131c0,0.26746 -0.09877,0.52397 -0.27459,0.7131l-11.13923,11.98262c-0.36652,0.39125 -0.95815,0.39002 -1.32326,-0.00275c-0.36512,-0.39277 -0.36625,-1.02918 -0.00253,-1.42345l11.13923,-11.98262c0.36611,-0.39381 0.95968,-0.39381 1.32579,0z" vector-effect="non-scaling-stroke"/></g><defs><path id="path-171503510776041" d="M3.09821,6.66379c1.47674,-0.00127 2.74705,-1.1244 3.03415,-2.68264c0.28711,-1.55824 -0.48893,-3.11766 -1.85359,-3.72473c-1.36466,-0.60707 -2.93793,-0.09273 -3.75779,1.2285c-0.81987,1.32124 -0.65803,3.08146 0.38655,4.20434c0.58068,0.62532 1.36903,0.97602 2.19069,0.97453zM2.23332,2.40231c0.41262,-0.44383 1.05922,-0.51231 1.54438,-0.16357c0.48516,0.34874 0.67376,1.01757 0.45045,1.59747c-0.22331,0.5799 -0.79633,0.90937 -1.36862,0.7869c-0.5723,-0.12246 -0.98448,-0.66274 -0.98448,-1.29042c-0.0009,-0.34915 0.12812,-0.68418 0.35827,-0.93038zM11.90183,7.33417c-1.47807,-0.00003 -2.75032,1.1231 -3.0387,2.68251c-0.28838,1.55942 0.48744,3.1208 1.85299,3.72927c1.36555,0.60847 2.94051,0.09455 3.76168,-1.22746c0.82118,-1.32201 0.65986,-3.08391 -0.38529,-4.20819c-0.57972,-0.62706 -1.36857,-0.97856 -2.19069,-0.97614zM12.76669,11.59723c-0.47818,0.51054 -1.25012,0.50898 -1.72652,-0.00349c-0.4764,-0.51246 -0.47785,-1.34285 -0.00324,-1.85724c0.30861,-0.33446 0.75994,-0.46585 1.18323,-0.34444c0.42329,0.12141 0.7539,0.47706 0.86675,0.9324c0.11285,0.45534 -0.00931,0.94083 -0.32024,1.2728zM13.73255,0.29536c0.17582,0.18913 0.27459,0.44563 0.27459,0.7131c0,0.26746 -0.09877,0.52397 -0.27459,0.7131l-11.13923,11.98262c-0.36652,0.39125 -0.95815,0.39002 -1.32326,-0.00275c-0.36512,-0.39277 -0.36625,-1.02918 -0.00253,-1.42345l11.13923,-11.98262c0.36611,-0.39381 0.95968,-0.39381 1.32579,0z" vector-effect="non-scaling-stroke"/></defs></g></svg>