<svg version="1.2" xmlns="http://www.w3.org/2000/svg" xmlns:xlink="http://www.w3.org/1999/xlink" overflow="visible" preserveAspectRatio="none" viewBox="0 0 14.99997693697492 15" width="14.99997693697492" height="15"><g transform="translate(0, 0)"><g transform="translate(1.7763568394002505e-15, 0) rotate(0)"><path d="M14.9442,6.67054c-0.06762,-0.62268 -0.59345,-1.09443 -1.21979,-1.09433h-0.43913c-0.08769,-0.28435 -0.21186,-0.55613 -0.36942,-0.80855l0.33457,-0.34154c0.44558,-0.44297 0.48179,-1.15195 0.08364,-1.63801c-0.34041,-0.42403 -0.72606,-0.80968 -1.15009,-1.15009c-0.48831,-0.39909 -1.19966,-0.36292 -1.64498,0.08364l-0.29972,0.32063c-0.26141,-0.14074 -0.54033,-0.24622 -0.82946,-0.31366v-0.46701c0.0001,-0.62634 -0.47165,-1.15218 -1.09433,-1.21979c-0.54691,-0.05578 -1.09807,-0.05578 -1.64498,0c-0.62268,0.06762 -1.09443,0.59345 -1.09433,1.21979v0.43913c-0.28331,0.0904 -0.55476,0.21442 -0.80855,0.36942l-0.34154,-0.33457c-0.44297,-0.44558 -1.15195,-0.48179 -1.63801,-0.08364c-0.41916,0.34119 -0.8001,0.7268 -1.13615,1.15009c-0.39909,0.48831 -0.36292,1.19966 0.08364,1.64498l0.32063,0.29972c-0.14074,0.26141 -0.24622,0.54033 -0.31366,0.82946h-0.48095c-0.62634,-0.0001 -1.15218,0.47165 -1.21979,1.09433c-0.05578,0.54691 -0.05578,1.09807 0,1.64498c0.06762,0.62268 0.59345,1.09443 1.21979,1.09433h0.43913c0.0904,0.28331 0.21442,0.55476 0.36942,0.80855l-0.33457,0.34154c-0.44558,0.44297 -0.48179,1.15195 -0.08364,1.63801c0.34041,0.42403 0.72606,0.80968 1.15009,1.15009c0.48831,0.39909 1.19966,0.36292 1.64498,-0.08364l0.29972,-0.32063c0.26141,0.14074 0.54033,0.24622 0.82946,0.31366v0.48095c-0.0001,0.62634 0.47165,1.15218 1.09433,1.21979c0.54691,0.05578 1.09807,0.05578 1.64498,0c0.62268,-0.06762 1.09443,-0.59345 1.09433,-1.21979v-0.43913c0.28331,-0.0904 0.55476,-0.21442 0.80855,-0.36942l0.34154,0.33457c0.44297,0.44558 1.15195,0.48179 1.63801,0.08364c0.42403,-0.34041 0.80968,-0.72606 1.15009,-1.15009c0.39814,-0.48606 0.36194,-1.19503 -0.08364,-1.63801l-0.32063,-0.30669c0.14182,-0.26092 0.24735,-0.53998 0.31366,-0.82946h0.48095c0.62634,0.0001 1.15218,-0.47165 1.21979,-1.09433c0.05578,-0.54691 0.05578,-1.09807 0,-1.64498zM13.89867,8.19005c-0.00728,0.09076 -0.08321,0.16061 -0.17426,0.16032h-0.48095c-0.43447,0.00466 -0.81805,0.28465 -0.95492,0.69702c-0.07746,0.24029 -0.1754,0.47349 -0.29275,0.69702c-0.23072,0.40395 -0.15591,0.9132 0.18123,1.23373l0.34154,0.34154c0.06293,0.06915 0.06293,0.17481 0,0.24396c-0.29047,0.36715 -0.62262,0.6993 -0.98977,0.98978c-0.06915,0.06293 -0.17481,0.06293 -0.24396,0l-0.30669,-0.37639c-0.31352,-0.30605 -0.78695,-0.37889 -1.17797,-0.18123c-0.2241,0.11615 -0.4572,0.21405 -0.69702,0.29275c-0.41237,0.13687 -0.69236,0.52046 -0.69702,0.95492v0.48095c0.00029,0.09105 -0.06956,0.16697 -0.16032,0.17426c-0.46314,0.05359 -0.93091,0.05359 -1.39405,0c-0.09076,-0.00728 -0.16061,-0.08321 -0.16032,-0.17426v-0.48095c-0.00466,-0.43447 -0.28465,-0.81805 -0.69702,-0.95492c-0.23983,-0.0787 -0.47292,-0.1766 -0.69702,-0.29275c-0.14549,-0.07129 -0.305,-0.10938 -0.46701,-0.11152c-0.26102,0.00586 -0.5101,0.11048 -0.69702,0.29275l-0.33457,0.33457c-0.06776,0.06642 -0.1762,0.06642 -0.24396,0c-0.36715,-0.29047 -0.6993,-0.62263 -0.98977,-0.98978c-0.06293,-0.06915 -0.06293,-0.17481 0,-0.24396l0.24396,-0.29972c0.30605,-0.31352 0.37888,-0.78695 0.18123,-1.17797c-0.11615,-0.2241 -0.21405,-0.4572 -0.29275,-0.69702c-0.13687,-0.41237 -0.52045,-0.69236 -0.95492,-0.69702h-0.48095c-0.05447,0.0016 -0.10655,-0.02237 -0.14075,-0.06479c-0.03421,-0.04242 -0.0466,-0.09839 -0.0335,-0.15129c-0.05359,-0.46314 -0.05359,-0.93091 0,-1.39405c0.00728,-0.09076 0.08321,-0.16061 0.17426,-0.16032h0.48095c0.43447,-0.00466 0.81805,-0.28465 0.95492,-0.69702c0.0787,-0.23983 0.1766,-0.47292 0.29275,-0.69702c0.22559,-0.4049 0.15128,-0.91082 -0.18123,-1.23373l-0.33457,-0.30669c-0.06642,-0.06776 -0.06642,-0.1762 0,-0.24396c0.2883,-0.36675 0.6181,-0.69889 0.9828,-0.98978c0.06915,-0.06293 0.17481,-0.06293 0.24396,0l0.30669,0.34154c0.31352,0.30605 0.78695,0.37889 1.17797,0.18123c0.2241,-0.11615 0.4572,-0.21405 0.69702,-0.29275c0.41237,-0.13687 0.69236,-0.52046 0.69702,-0.95492v-0.48095c-0.0016,-0.05447 0.02237,-0.10655 0.06479,-0.14075c0.04242,-0.03421 0.09839,-0.0466 0.15129,-0.0335c0.46314,-0.05359 0.93091,-0.05359 1.39405,0c0.09076,0.00728 0.16061,0.08321 0.16032,0.17426v0.48095c0.00466,0.43447 0.28465,0.81805 0.69702,0.95492c0.23983,0.0787 0.47292,0.1766 0.69702,0.29275c0.4049,0.22559 0.91081,0.15128 1.23373,-0.18123l0.33457,-0.33457c0.06776,-0.06642 0.1762,-0.06642 0.24396,0c0.36715,0.29047 0.6993,0.62263 0.98977,0.98978c0.06642,0.06776 0.06642,0.1762 0,0.24396l-0.36942,0.29972c-0.30605,0.31352 -0.37888,0.78695 -0.18123,1.17797c0.11843,0.22303 0.21641,0.45632 0.29275,0.69702c0.13687,0.41237 0.52045,0.69236 0.95492,0.69702h0.48095c0.09105,-0.00029 0.16697,0.06956 0.17426,0.16032c0.05359,0.46314 0.05359,0.93091 0,1.39405zM7.49302,4.18216c-1.82854,0 -3.31086,1.48233 -3.31086,3.31087c0,1.82854 1.48232,3.31087 3.31086,3.31087c1.82854,0 3.31086,-1.48233 3.31086,-3.31087c0,-1.82854 -1.48232,-3.31087 -3.31086,-3.31087zM7.49302,9.75836c-1.25111,0 -2.26533,-1.01422 -2.26533,-2.26533c0,-1.25111 1.01422,-2.26533 2.26533,-2.26533c1.25111,0 2.26533,1.01422 2.26533,2.26533c-0.00383,1.24952 -1.01581,2.2615 -2.26533,2.26533z" style="stroke-width: 0; stroke-linecap: butt; stroke-linejoin: miter; fill: rgb(213, 223, 232);" vector-effect="non-scaling-stroke"/></g><defs><path id="path-17113923184436415" d="M14.9442,6.67054c-0.06762,-0.62268 -0.59345,-1.09443 -1.21979,-1.09433h-0.43913c-0.08769,-0.28435 -0.21186,-0.55613 -0.36942,-0.80855l0.33457,-0.34154c0.44558,-0.44297 0.48179,-1.15195 0.08364,-1.63801c-0.34041,-0.42403 -0.72606,-0.80968 -1.15009,-1.15009c-0.48831,-0.39909 -1.19966,-0.36292 -1.64498,0.08364l-0.29972,0.32063c-0.26141,-0.14074 -0.54033,-0.24622 -0.82946,-0.31366v-0.46701c0.0001,-0.62634 -0.47165,-1.15218 -1.09433,-1.21979c-0.54691,-0.05578 -1.09807,-0.05578 -1.64498,0c-0.62268,0.06762 -1.09443,0.59345 -1.09433,1.21979v0.43913c-0.28331,0.0904 -0.55476,0.21442 -0.80855,0.36942l-0.34154,-0.33457c-0.44297,-0.44558 -1.15195,-0.48179 -1.63801,-0.08364c-0.41916,0.34119 -0.8001,0.7268 -1.13615,1.15009c-0.39909,0.48831 -0.36292,1.19966 0.08364,1.64498l0.32063,0.29972c-0.14074,0.26141 -0.24622,0.54033 -0.31366,0.82946h-0.48095c-0.62634,-0.0001 -1.15218,0.47165 -1.21979,1.09433c-0.05578,0.54691 -0.05578,1.09807 0,1.64498c0.06762,0.62268 0.59345,1.09443 1.21979,1.09433h0.43913c0.0904,0.28331 0.21442,0.55476 0.36942,0.80855l-0.33457,0.34154c-0.44558,0.44297 -0.48179,1.15195 -0.08364,1.63801c0.34041,0.42403 0.72606,0.80968 1.15009,1.15009c0.48831,0.39909 1.19966,0.36292 1.64498,-0.08364l0.29972,-0.32063c0.26141,0.14074 0.54033,0.24622 0.82946,0.31366v0.48095c-0.0001,0.62634 0.47165,1.15218 1.09433,1.21979c0.54691,0.05578 1.09807,0.05578 1.64498,0c0.62268,-0.06762 1.09443,-0.59345 1.09433,-1.21979v-0.43913c0.28331,-0.0904 0.55476,-0.21442 0.80855,-0.36942l0.34154,0.33457c0.44297,0.44558 1.15195,0.48179 1.63801,0.08364c0.42403,-0.34041 0.80968,-0.72606 1.15009,-1.15009c0.39814,-0.48606 0.36194,-1.19503 -0.08364,-1.63801l-0.32063,-0.30669c0.14182,-0.26092 0.24735,-0.53998 0.31366,-0.82946h0.48095c0.62634,0.0001 1.15218,-0.47165 1.21979,-1.09433c0.05578,-0.54691 0.05578,-1.09807 0,-1.64498zM13.89867,8.19005c-0.00728,0.09076 -0.08321,0.16061 -0.17426,0.16032h-0.48095c-0.43447,0.00466 -0.81805,0.28465 -0.95492,0.69702c-0.07746,0.24029 -0.1754,0.47349 -0.29275,0.69702c-0.23072,0.40395 -0.15591,0.9132 0.18123,1.23373l0.34154,0.34154c0.06293,0.06915 0.06293,0.17481 0,0.24396c-0.29047,0.36715 -0.62262,0.6993 -0.98977,0.98978c-0.06915,0.06293 -0.17481,0.06293 -0.24396,0l-0.30669,-0.37639c-0.31352,-0.30605 -0.78695,-0.37889 -1.17797,-0.18123c-0.2241,0.11615 -0.4572,0.21405 -0.69702,0.29275c-0.41237,0.13687 -0.69236,0.52046 -0.69702,0.95492v0.48095c0.00029,0.09105 -0.06956,0.16697 -0.16032,0.17426c-0.46314,0.05359 -0.93091,0.05359 -1.39405,0c-0.09076,-0.00728 -0.16061,-0.08321 -0.16032,-0.17426v-0.48095c-0.00466,-0.43447 -0.28465,-0.81805 -0.69702,-0.95492c-0.23983,-0.0787 -0.47292,-0.1766 -0.69702,-0.29275c-0.14549,-0.07129 -0.305,-0.10938 -0.46701,-0.11152c-0.26102,0.00586 -0.5101,0.11048 -0.69702,0.29275l-0.33457,0.33457c-0.06776,0.06642 -0.1762,0.06642 -0.24396,0c-0.36715,-0.29047 -0.6993,-0.62263 -0.98977,-0.98978c-0.06293,-0.06915 -0.06293,-0.17481 0,-0.24396l0.24396,-0.29972c0.30605,-0.31352 0.37888,-0.78695 0.18123,-1.17797c-0.11615,-0.2241 -0.21405,-0.4572 -0.29275,-0.69702c-0.13687,-0.41237 -0.52045,-0.69236 -0.95492,-0.69702h-0.48095c-0.05447,0.0016 -0.10655,-0.02237 -0.14075,-0.06479c-0.03421,-0.04242 -0.0466,-0.09839 -0.0335,-0.15129c-0.05359,-0.46314 -0.05359,-0.93091 0,-1.39405c0.00728,-0.09076 0.08321,-0.16061 0.17426,-0.16032h0.48095c0.43447,-0.00466 0.81805,-0.28465 0.95492,-0.69702c0.0787,-0.23983 0.1766,-0.47292 0.29275,-0.69702c0.22559,-0.4049 0.15128,-0.91082 -0.18123,-1.23373l-0.33457,-0.30669c-0.06642,-0.06776 -0.06642,-0.1762 0,-0.24396c0.2883,-0.36675 0.6181,-0.69889 0.9828,-0.98978c0.06915,-0.06293 0.17481,-0.06293 0.24396,0l0.30669,0.34154c0.31352,0.30605 0.78695,0.37889 1.17797,0.18123c0.2241,-0.11615 0.4572,-0.21405 0.69702,-0.29275c0.41237,-0.13687 0.69236,-0.52046 0.69702,-0.95492v-0.48095c-0.0016,-0.05447 0.02237,-0.10655 0.06479,-0.14075c0.04242,-0.03421 0.09839,-0.0466 0.15129,-0.0335c0.46314,-0.05359 0.93091,-0.05359 1.39405,0c0.09076,0.00728 0.16061,0.08321 0.16032,0.17426v0.48095c0.00466,0.43447 0.28465,0.81805 0.69702,0.95492c0.23983,0.0787 0.47292,0.1766 0.69702,0.29275c0.4049,0.22559 0.91081,0.15128 1.23373,-0.18123l0.33457,-0.33457c0.06776,-0.06642 0.1762,-0.06642 0.24396,0c0.36715,0.29047 0.6993,0.62263 0.98977,0.98978c0.06642,0.06776 0.06642,0.1762 0,0.24396l-0.36942,0.29972c-0.30605,0.31352 -0.37888,0.78695 -0.18123,1.17797c0.11843,0.22303 0.21641,0.45632 0.29275,0.69702c0.13687,0.41237 0.52045,0.69236 0.95492,0.69702h0.48095c0.09105,-0.00029 0.16697,0.06956 0.17426,0.16032c0.05359,0.46314 0.05359,0.93091 0,1.39405zM7.49302,4.18216c-1.82854,0 -3.31086,1.48233 -3.31086,3.31087c0,1.82854 1.48232,3.31087 3.31086,3.31087c1.82854,0 3.31086,-1.48233 3.31086,-3.31087c0,-1.82854 -1.48232,-3.31087 -3.31086,-3.31087zM7.49302,9.75836c-1.25111,0 -2.26533,-1.01422 -2.26533,-2.26533c0,-1.25111 1.01422,-2.26533 2.26533,-2.26533c1.25111,0 2.26533,1.01422 2.26533,2.26533c-0.00383,1.24952 -1.01581,2.2615 -2.26533,2.26533z" vector-effect="non-scaling-stroke"/></defs></g></svg>