<svg id="Capa_1" data-name="Capa 1" xmlns="http://www.w3.org/2000/svg" viewBox="0 0 73 90"><defs><style>.cls-1{fill:none;stroke:#023047;stroke-width:5px;}.cls-2{fill:#06d6a0;}</style></defs><title>señal de correcto</title><path class="cls-1" d="M30.85,85V65.16h11.3V85Zm32.3-21H9.85A4.81,4.81,0,0,1,5,59.22V17.76A4.82,4.82,0,0,1,9.85,13h53.3A4.82,4.82,0,0,1,68,17.76V59.22A4.81,4.81,0,0,1,63.15,64Zm-21-51H30.85V10.58A5.62,5.62,0,0,1,36.5,5h0a5.62,5.62,0,0,1,5.65,5.58Z"/><path id="check-circle-o" class="cls-2" d="M45.78,35.46a1.49,1.49,0,0,0,0-2.07l0,0L43.41,31a1.41,1.41,0,0,0-2-.05l0,.05L35,37.39,31.64,34a1.41,1.41,0,0,0-2,0l0,0-2.34,2.39a1.48,1.48,0,0,0-.05,2.07l.05,0L34,45.34a1.42,1.42,0,0,0,2,0l.05,0,9.69-9.88h0Zm1.56,8.35a12.55,12.55,0,0,1-4.55,4.63,12.4,12.4,0,0,1-12.54,0,12.61,12.61,0,0,1-4.57-4.66,13,13,0,0,1,0-12.78,12.55,12.55,0,0,1,4.55-4.63,12.4,12.4,0,0,1,12.54,0A12.55,12.55,0,0,1,47.32,31a13,13,0,0,1,0,12.78Zm4.42-15.44a17.8,17.8,0,0,0-6.43-6.55,17.26,17.26,0,0,0-17.66,0A18.18,18.18,0,0,0,21.2,46.39,17.58,17.58,0,0,0,27.67,53a17.35,17.35,0,0,0,17.66,0,18.22,18.22,0,0,0,8.84-15.6,17.83,17.83,0,0,0-2.39-9Z"/></svg>