<svg version="1.2" xmlns="http://www.w3.org/2000/svg" xmlns:xlink="http://www.w3.org/1999/xlink" overflow="visible" preserveAspectRatio="none" viewBox="0 0 16.999990470538705 14" width="16.999990470538705" height="14"><g transform="translate(1, 1)"><g transform="translate(9.771863358635016e-16, 0) rotate(0)"><path d="M3.18295,8.04562c-0.45666,0.46819 -1.19435,0.46819 -1.65101,0c-0.45666,-0.47539 -0.44964,-1.2389 0.01405,-1.69988c0.21779,-0.21609 0.50584,-0.33854 0.80794,-0.34574c0.64635,-0.0072 1.17327,0.52581 1.17327,1.18848c0,0.32413 -0.12646,0.63385 -0.34425,0.85714zM4.44053,2.12485c0.01405,-0.05042 0.0562,-0.10084 0.10538,-0.12965c0.04215,-0.03601 0.09133,-0.06483 0.14754,-0.07203h5.62047c0.0562,0.0072 0.11241,0.02881 0.15456,0.07203c0.04918,0.02881 0.08431,0.07923 0.10538,0.12965l0.65338,2.67947h-7.4401zM11.83145,8.04562c-0.45666,-0.46819 -0.44964,-1.22449 0.00703,-1.69268c0.45666,-0.46819 1.19435,-0.46098 1.65101,0.0072c0.21779,0.22329 0.33723,0.52581 0.33723,0.84274c0,0.31693 -0.12646,0.61945 -0.34425,0.84994c-0.45666,0.46819 -1.19435,0.46098 -1.65101,-0.0072zM14.99999,6.48259c0,-0.92917 -0.73066,-1.67827 -1.63696,-1.67827h-0.23887l-0.74471,-3.12605c-0.2459,-0.97239 -1.08897,-1.65666 -2.06552,-1.67827h-5.62047c-0.47774,0 -0.9344,0.17287 -1.30676,0.47539c-0.38641,0.29532 -0.65338,0.72029 -0.75876,1.20288l-0.74471,3.11885h-0.23184c-0.44261,-0.01441 -0.87117,0.15846 -1.17327,0.48259c-0.30913,0.30972 -0.48477,0.7419 -0.47774,1.18848v2.88115c-0.00703,0.12965 0.09133,0.23049 0.21779,0.2377c0.00703,0 0.00703,0 0.01405,0h0.70256v0.95798c0,0.79232 0.6323,1.44058 1.40512,1.44058c0.77281,0 1.40512,-0.64826 1.40512,-1.44058v-0.94358h7.50333v0.95798c0,0.79232 0.6323,1.44058 1.40512,1.44058c0.77281,0 1.40512,-0.64826 1.40512,-1.44058v-0.95798h0.70256c0.12646,0.0072 0.22482,-0.09364 0.23184,-0.22329c0,-0.0072 0,-0.0072 0,-0.01441v-2.88115z" style="stroke: rgb(213, 223, 232); stroke-width: 1; stroke-linecap: butt; stroke-linejoin: miter; fill: transparent;" vector-effect="non-scaling-stroke"/></g><defs><path id="path-17113923184336299" d="M3.18295,8.04562c-0.45666,0.46819 -1.19435,0.46819 -1.65101,0c-0.45666,-0.47539 -0.44964,-1.2389 0.01405,-1.69988c0.21779,-0.21609 0.50584,-0.33854 0.80794,-0.34574c0.64635,-0.0072 1.17327,0.52581 1.17327,1.18848c0,0.32413 -0.12646,0.63385 -0.34425,0.85714zM4.44053,2.12485c0.01405,-0.05042 0.0562,-0.10084 0.10538,-0.12965c0.04215,-0.03601 0.09133,-0.06483 0.14754,-0.07203h5.62047c0.0562,0.0072 0.11241,0.02881 0.15456,0.07203c0.04918,0.02881 0.08431,0.07923 0.10538,0.12965l0.65338,2.67947h-7.4401zM11.83145,8.04562c-0.45666,-0.46819 -0.44964,-1.22449 0.00703,-1.69268c0.45666,-0.46819 1.19435,-0.46098 1.65101,0.0072c0.21779,0.22329 0.33723,0.52581 0.33723,0.84274c0,0.31693 -0.12646,0.61945 -0.34425,0.84994c-0.45666,0.46819 -1.19435,0.46098 -1.65101,-0.0072zM14.99999,6.48259c0,-0.92917 -0.73066,-1.67827 -1.63696,-1.67827h-0.23887l-0.74471,-3.12605c-0.2459,-0.97239 -1.08897,-1.65666 -2.06552,-1.67827h-5.62047c-0.47774,0 -0.9344,0.17287 -1.30676,0.47539c-0.38641,0.29532 -0.65338,0.72029 -0.75876,1.20288l-0.74471,3.11885h-0.23184c-0.44261,-0.01441 -0.87117,0.15846 -1.17327,0.48259c-0.30913,0.30972 -0.48477,0.7419 -0.47774,1.18848v2.88115c-0.00703,0.12965 0.09133,0.23049 0.21779,0.2377c0.00703,0 0.00703,0 0.01405,0h0.70256v0.95798c0,0.79232 0.6323,1.44058 1.40512,1.44058c0.77281,0 1.40512,-0.64826 1.40512,-1.44058v-0.94358h7.50333v0.95798c0,0.79232 0.6323,1.44058 1.40512,1.44058c0.77281,0 1.40512,-0.64826 1.40512,-1.44058v-0.95798h0.70256c0.12646,0.0072 0.22482,-0.09364 0.23184,-0.22329c0,-0.0072 0,-0.0072 0,-0.01441v-2.88115z" vector-effect="non-scaling-stroke"/></defs></g></svg>