<svg height="40" overflow="visible" viewBox="0 0 40 40" width="40" xmlns="http://www.w3.org/2000/svg"><g><defs><path id="path-171475593118039924" d="M20.000000000000004 0 C31.038300489879997 0 40.00000000000001 8.961699510119997 40.00000000000001 20.000000000000004 C40.00000000000001 31.038300489879994 31.038300489879997 40.00000000000001 20.000000000000004 40.00000000000001 C8.961699510119999 40.00000000000001 0 31.038300489879994 0 20.000000000000004 C0 8.961699510119997 8.961699510119999 0 20.000000000000004 0 Z" vector-effect="non-scaling-stroke"/></defs> <path d="M20 0 C31.038300489879987 0 40 8.961699510120013 40 20 C40 31.038300489879987 31.038300489879987 40 20 40 C8.961699510120013 40 0 31.038300489879987 0 20 C0 8.961699510120013 8.961699510120013 0 20 0 Z" style="stroke: rgb(140, 140, 140); stroke-width: 0; stroke-linecap: butt; stroke-linejoin: miter; fill: rgb(2, 48, 71);" vector-effect="non-scaling-stroke"/></g><g><defs><path id="path-171475593117939922" d="M7.72625,12.9875c-1.34963,0 -2.62427,0.6125 -3.47404,1.6625h-1.74951c-0.63732,0.0125 -1.24965,-0.1625 -1.77451,-0.525c-0.48736,-0.3625 -0.76229,-0.9375 -0.7248,-1.5375c0,-3.0625 0.53735,-4.6 1.62455,-4.6c0.19994,0.075 0.39989,0.1625 0.57484,0.2875c0.39989,0.2125 0.82477,0.4 1.24965,0.55c0.49986,0.175 1.02472,0.275 1.54957,0.275c0.58734,0 1.17467,-0.1125 1.73702,-0.3125c-0.03749,0.2875 -0.06248,0.575 -0.06248,0.8625c-0.0125,1.2 0.3624,2.3625 1.04971,3.3375zM21.4904,21.8609c0.06149,0.86482 -0.28287,1.69505 -0.93471,2.30618c-0.67644,0.56502 -1.54966,0.86482 -2.45977,0.83023h-11.19197c-0.91012,0.03459 -1.78334,-0.26521 -2.45977,-0.83023c-0.65184,-0.61114 -0.99621,-1.44136 -0.93471,-2.30618c0,-0.42664 0,-0.84176 0,-1.24534c0.0369,-0.43817 0.09839,-0.87635 0.18448,-1.30299c0.08609,-0.43817 0.19678,-0.87635 0.34437,-1.30299c0.14759,-0.40358 0.33207,-0.7841 0.55345,-1.15309c0.20908,-0.35746 0.47966,-0.68032 0.79943,-0.9686c0.31977,-0.27674 0.68874,-0.49583 1.0946,-0.64573c0.45506,-0.16143 0.93471,-0.24215 1.42667,-0.24215c0.19678,0.04612 0.39356,0.13837 0.55345,0.25368l0.93471,0.57655c0.43046,0.25368 0.88552,0.43817 1.36517,0.57655c1.62345,0.4843 3.39449,0.27674 4.83346,-0.57655l0.93471,-0.57655c0.15989,-0.11531 0.35667,-0.20756 0.55345,-0.25368c0.49195,0 0.97161,0.08072 1.42667,0.24215c0.40586,0.1499 0.77483,0.36899 1.0946,0.64573c0.31977,0.28827 0.59035,0.61114 0.79943,0.9686c0.22138,0.36899 0.40586,0.74951 0.55345,1.15309c0.14759,0.42664 0.25828,0.86482 0.34437,1.30299c0.08609,0.42664 0.14759,0.86482 0.18448,1.30299c0,0.40358 0,0.8187 0,1.24534zM8.15146,3.33907c0.0125,0.8875 -0.33741,1.7375 -0.97473,2.35c-0.61233,0.6375 -1.46209,0.9875 -2.34935,0.975c-0.88725,0.0125 -1.73702,-0.35 -2.34935,-0.9875c-0.63732,-0.6125 -0.98723,-1.4625 -0.97473,-2.35c-0.0125,-0.8875 0.33741,-1.7375 0.97473,-2.35c0.61233,-0.6375 1.46209,-0.9875 2.34935,-0.975c0.88725,-0.0125 1.73702,0.3375 2.36185,0.975c0.63732,0.625 0.97473,1.475 0.96223,2.3625zM17.49854,10.00083c0,2.7625 -2.23688,5 -4.99861,5c-2.76173,0 -4.99861,-2.2375 -4.99861,-5c0,-2.7625 2.23688,-5 4.99861,-5c1.32463,-0.025 2.61178,0.5125 3.53652,1.4625c0.94974,0.925 1.48709,2.2125 1.46209,3.5375zM24.99647,12.5875c0.03749,0.6 -0.22494,1.175 -0.69981,1.5375c-0.52485,0.3625 -1.16218,0.55 -1.7995,0.525h-1.77451c-0.84976,-1.0375 -2.11191,-1.65 -3.44904,-1.6625c0.68731,-0.975 1.06221,-2.1375 1.06221,-3.325c0,-0.2875 -0.02499,-0.575 -0.06248,-0.8625c0.54985,0.2 1.13718,0.3 1.72452,0.3c0.53735,0 1.06221,-0.1 1.56207,-0.2875c0.42488,-0.15 0.84976,-0.3375 1.24965,-0.55c0.17495,-0.1125 0.3624,-0.2125 0.56234,-0.275c1.0872,0 1.62455,1.5375 1.62455,4.6zM23.1473,3.32657c0.0125,0.8875 -0.33741,1.7375 -0.97473,2.35l-0.0125,0.0125c-1.29964,1.2875 -3.39906,1.2875 -4.6987,-0.0125c-0.63732,-0.6125 -0.98723,-1.4625 -0.97473,-2.35c-0.0125,-0.8875 0.33741,-1.7375 0.97473,-2.35l0.0125,-0.0125c1.29964,-1.2875 3.39906,-1.2875 4.6987,0.0125c0.63732,0.6125 0.98723,1.4625 0.97473,2.35z" vector-effect="non-scaling-stroke"/></defs><path d="M7.72625,12.9875c-1.34963,0 -2.62427,0.6125 -3.47404,1.6625h-1.74951c-0.63732,0.0125 -1.24965,-0.1625 -1.77451,-0.525c-0.48736,-0.3625 -0.76229,-0.9375 -0.7248,-1.5375c0,-3.0625 0.53735,-4.6 1.62455,-4.6c0.19994,0.075 0.39989,0.1625 0.57484,0.2875c0.39989,0.2125 0.82477,0.4 1.24965,0.55c0.49986,0.175 1.02472,0.275 1.54957,0.275c0.58734,0 1.17467,-0.1125 1.73702,-0.3125c-0.03749,0.2875 -0.06248,0.575 -0.06248,0.8625c-0.0125,1.2 0.3624,2.3625 1.04971,3.3375zM21.4904,21.8609c0.06149,0.86482 -0.28287,1.69505 -0.93471,2.30618c-0.67644,0.56502 -1.54966,0.86482 -2.45977,0.83023h-11.19197c-0.91012,0.03459 -1.78334,-0.26521 -2.45977,-0.83023c-0.65184,-0.61114 -0.99621,-1.44136 -0.93471,-2.30618c0,-0.42664 0,-0.84176 0,-1.24534c0.0369,-0.43817 0.09839,-0.87635 0.18448,-1.30299c0.08609,-0.43817 0.19678,-0.87635 0.34437,-1.30299c0.14759,-0.40358 0.33207,-0.7841 0.55345,-1.15309c0.20908,-0.35746 0.47966,-0.68032 0.79943,-0.9686c0.31977,-0.27674 0.68874,-0.49583 1.0946,-0.64573c0.45506,-0.16143 0.93471,-0.24215 1.42667,-0.24215c0.19678,0.04612 0.39356,0.13837 0.55345,0.25368l0.93471,0.57655c0.43046,0.25368 0.88552,0.43817 1.36517,0.57655c1.62345,0.4843 3.39449,0.27674 4.83346,-0.57655l0.93471,-0.57655c0.15989,-0.11531 0.35667,-0.20756 0.55345,-0.25368c0.49195,0 0.97161,0.08072 1.42667,0.24215c0.40586,0.1499 0.77483,0.36899 1.0946,0.64573c0.31977,0.28827 0.59035,0.61114 0.79943,0.9686c0.22138,0.36899 0.40586,0.74951 0.55345,1.15309c0.14759,0.42664 0.25828,0.86482 0.34437,1.30299c0.08609,0.42664 0.14759,0.86482 0.18448,1.30299c0,0.40358 0,0.8187 0,1.24534zM8.15146,3.33907c0.0125,0.8875 -0.33741,1.7375 -0.97473,2.35c-0.61233,0.6375 -1.46209,0.9875 -2.34935,0.975c-0.88725,0.0125 -1.73702,-0.35 -2.34935,-0.9875c-0.63732,-0.6125 -0.98723,-1.4625 -0.97473,-2.35c-0.0125,-0.8875 0.33741,-1.7375 0.97473,-2.35c0.61233,-0.6375 1.46209,-0.9875 2.34935,-0.975c0.88725,-0.0125 1.73702,0.3375 2.36185,0.975c0.63732,0.625 0.97473,1.475 0.96223,2.3625zM17.49854,10.00083c0,2.7625 -2.23688,5 -4.99861,5c-2.76173,0 -4.99861,-2.2375 -4.99861,-5c0,-2.7625 2.23688,-5 4.99861,-5c1.32463,-0.025 2.61178,0.5125 3.53652,1.4625c0.94974,0.925 1.48709,2.2125 1.46209,3.5375zM24.99647,12.5875c0.03749,0.6 -0.22494,1.175 -0.69981,1.5375c-0.52485,0.3625 -1.16218,0.55 -1.7995,0.525h-1.77451c-0.84976,-1.0375 -2.11191,-1.65 -3.44904,-1.6625c0.68731,-0.975 1.06221,-2.1375 1.06221,-3.325c0,-0.2875 -0.02499,-0.575 -0.06248,-0.8625c0.54985,0.2 1.13718,0.3 1.72452,0.3c0.53735,0 1.06221,-0.1 1.56207,-0.2875c0.42488,-0.15 0.84976,-0.3375 1.24965,-0.55c0.17495,-0.1125 0.3624,-0.2125 0.56234,-0.275c1.0872,0 1.62455,1.5375 1.62455,4.6zM23.1473,3.32657c0.0125,0.8875 -0.33741,1.7375 -0.97473,2.35l-0.0125,0.0125c-1.29964,1.2875 -3.39906,1.2875 -4.6987,-0.0125c-0.63732,-0.6125 -0.98723,-1.4625 -0.97473,-2.35c-0.0125,-0.8875 0.33741,-1.7375 0.97473,-2.35l0.0125,-0.0125c1.29964,-1.2875 3.39906,-1.2875 4.6987,0.0125c0.63732,0.6125 0.98723,1.4625 0.97473,2.35z" style="stroke: rgb(255, 255, 255); stroke-width: 1; stroke-linecap: butt; stroke-linejoin: miter; fill: transparent;" transform="translate(8.000005978303307, 7.99999816125387) rotate(0)" vector-effect="non-scaling-stroke"/></g></svg>