<svg version="1.2" xmlns="http://www.w3.org/2000/svg" xmlns:xlink="http://www.w3.org/1999/xlink" overflow="visible" preserveAspectRatio="none" viewBox="0 0 12.000004099572378 14.99999999999999" width="12.000004099572378" height="14.99999999999999"><g transform="translate(1, 1)"><g transform="translate(1.0570971181733668e-16, -1.0409479268141952e-14) rotate(0)"><path d="M7.11437,0.91361c0.56969,0.57262 0.89202,1.3619 0.87703,2.18214c0.01499,0.82024 -0.30733,1.61726 -0.87703,2.18988c-0.5547,0.5881 -1.32679,0.92083 -2.12136,0.90536c-0.79457,0.01548 -1.56666,-0.31726 -2.12136,-0.90536c-0.56969,-0.57262 -0.89202,-1.36964 -0.87703,-2.18988c-0.01499,-0.82024 0.30733,-1.60952 0.87703,-2.18214c0.5547,-0.59583 1.31929,-0.92857 2.12136,-0.9131c0.80207,-0.01548 1.56666,0.31726 2.12136,0.9131zM8.32821,13h-6.67141c-0.44976,0 -0.87703,-0.21667 -1.16188,-0.58036c-0.32982,-0.3869 -0.50223,-0.88988 -0.48724,-1.4006c-0.05247,-1.05238 0.16491,-2.09702 0.61467,-3.04107c0.32982,-0.68869 1.00446,-1.1375 1.74656,-1.16845c1.49919,1.3619 3.74798,1.3619 5.24718,0c0.7496,0.02321 1.42423,0.47202 1.76155,1.16845c0.44976,0.94405 0.66714,1.98869 0.61467,3.04107c0.0075,0.51845 -0.17241,1.01369 -0.50223,1.4006c-0.28485,0.36369 -0.71961,0.58036 -1.17687,0.57262v0z" style="stroke: rgb(213, 223, 232); stroke-width: 1; stroke-linecap: butt; stroke-linejoin: miter; fill: transparent;" vector-effect="non-scaling-stroke"/></g><defs><path id="path-17113923184316281" d="M7.11437,0.91361c0.56969,0.57262 0.89202,1.3619 0.87703,2.18214c0.01499,0.82024 -0.30733,1.61726 -0.87703,2.18988c-0.5547,0.5881 -1.32679,0.92083 -2.12136,0.90536c-0.79457,0.01548 -1.56666,-0.31726 -2.12136,-0.90536c-0.56969,-0.57262 -0.89202,-1.36964 -0.87703,-2.18988c-0.01499,-0.82024 0.30733,-1.60952 0.87703,-2.18214c0.5547,-0.59583 1.31929,-0.92857 2.12136,-0.9131c0.80207,-0.01548 1.56666,0.31726 2.12136,0.9131zM8.32821,13h-6.67141c-0.44976,0 -0.87703,-0.21667 -1.16188,-0.58036c-0.32982,-0.3869 -0.50223,-0.88988 -0.48724,-1.4006c-0.05247,-1.05238 0.16491,-2.09702 0.61467,-3.04107c0.32982,-0.68869 1.00446,-1.1375 1.74656,-1.16845c1.49919,1.3619 3.74798,1.3619 5.24718,0c0.7496,0.02321 1.42423,0.47202 1.76155,1.16845c0.44976,0.94405 0.66714,1.98869 0.61467,3.04107c0.0075,0.51845 -0.17241,1.01369 -0.50223,1.4006c-0.28485,0.36369 -0.71961,0.58036 -1.17687,0.57262v0z" vector-effect="non-scaling-stroke"/></defs></g></svg>